<svg width="81" height="81" viewBox="0 0 81 81" fill="none" xmlns="http://www.w3.org/2000/svg">
<g clip-path="url(#clip0_515_1332)">
<path d="M66.3333 0.5H14.6667C6.84263 0.5 0.5 7.00526 0.5 15.0299V65.9701C0.5 73.9947 6.84263 80.5 14.6667 80.5H66.3333C74.1574 80.5 80.5 73.9947 80.5 65.9701V15.0299C80.5 7.00526 74.1574 0.5 66.3333 0.5Z" fill="#00005B"/>
<path d="M32.6382 48.3632H20.2411L17.7188 56.4149C17.6845 56.5614 17.6013 56.6911 17.4838 56.7815C17.3662 56.872 17.2216 56.9175 17.0748 56.9102H10.7958C10.4377 56.9102 10.3125 56.7084 10.4201 56.3048L21.1535 24.7312C21.2608 24.401 21.3682 24.0782 21.4755 23.6558C21.616 22.9215 21.6879 22.175 21.6901 21.4267C21.6829 21.3743 21.6876 21.321 21.7039 21.2708C21.7202 21.2207 21.7476 21.1751 21.7841 21.1377C21.8205 21.1003 21.865 21.0722 21.9139 21.0554C21.9627 21.0387 22.0148 21.0339 22.0658 21.0413H30.5989C30.8487 21.0413 30.9918 21.1331 31.0282 21.3166L43.2105 56.3598C43.3178 56.727 43.2104 56.9105 42.8886 56.9102H35.9118C35.792 56.9239 35.6715 56.8923 35.5727 56.8214C35.4739 56.7505 35.4037 56.6451 35.3752 56.525L32.6382 48.3632ZM22.1732 41.5743H30.6526C30.4379 40.8407 30.1874 40.015 29.9011 39.0973C29.6143 38.1805 29.3102 37.1989 28.9888 36.1525C28.6669 35.1068 28.3449 34.061 28.0228 33.0151C27.7009 31.9693 27.4057 30.9602 27.1372 29.9877C26.869 29.0159 26.6275 28.1261 26.4128 27.3182H26.3591C26.0571 28.8048 25.681 30.2745 25.2321 31.7216C24.7307 33.3729 24.2208 35.0609 23.7027 36.7855C23.1836 38.5108 22.6738 40.1071 22.1732 41.5743Z" fill="#9999FF"/>
<path d="M62.9607 45.2294H52.3884C52.5179 46.3023 52.8653 47.3354 53.4081 48.262C54.0083 49.1796 54.857 49.8971 55.8498 50.3261C57.1954 50.9233 58.6507 51.2158 60.1164 51.1838C61.2793 51.1609 62.4378 51.0305 63.5779 50.794C64.5976 50.6528 65.5968 50.3857 66.554 49.9983C66.7325 49.8522 66.8224 49.9433 66.8224 50.2736V55.5026C66.8312 55.6451 66.8034 55.7874 66.7418 55.9154C66.6804 56.0155 66.5978 56.1001 66.5003 56.1631C65.4386 56.6454 64.3213 56.9868 63.1754 57.179C61.6187 57.4789 60.0364 57.6172 58.4527 57.5918C55.9118 57.5918 53.7831 57.1882 52.0663 56.3809C50.4434 55.6476 49.01 54.5355 47.8804 53.1333C46.8253 51.8121 46.0404 50.2864 45.5727 48.6473C45.1095 47.0295 44.8746 45.352 44.8751 43.6659C44.8701 41.8249 45.1509 39.9948 45.7069 38.2443C46.2424 36.5367 47.0892 34.949 48.2024 33.5656C49.3004 32.1984 50.6734 31.0906 52.2275 30.3181C53.8014 29.5294 55.662 29.2465 57.8087 29.2465C59.5889 29.2003 61.3572 29.5574 62.9876 30.2922C64.3584 30.8919 65.5653 31.8268 66.5027 33.0152C67.3819 34.1789 68.0541 35.4925 68.4884 36.8957C68.9112 38.2479 69.1284 39.6589 69.1324 41.079C69.1324 41.8865 69.1055 42.6204 69.0518 43.2807C68.9983 43.9411 68.9536 44.4182 68.9177 44.7118C68.9038 44.8331 68.8469 44.945 68.7578 45.0262C68.6688 45.1074 68.5538 45.1522 68.4346 45.1521C68.22 45.1521 67.8533 45.1797 67.3346 45.2347C66.8155 45.2897 66.1715 45.3264 65.4026 45.3448C64.6327 45.3637 63.8194 45.2294 62.9607 45.2294ZM52.3884 40.2151H59.4187C60.2774 40.2151 60.9125 40.206 61.3238 40.1876C61.5991 40.1594 61.8649 40.0691 62.1021 39.923V39.5928C62.0913 39.1623 62.019 38.7358 61.8875 38.3268C61.5979 37.3878 61.0157 36.5722 60.2304 36.0054C59.4451 35.4386 58.5001 35.1519 57.5405 35.1894C56.6373 35.1334 55.7378 35.3482 54.9516 35.8075C54.1654 36.2669 53.5265 36.951 53.1129 37.7764C52.7453 38.5441 52.5006 39.3676 52.3884 40.2151Z" fill="#9999FF"/>
</g>
<defs>
<clipPath id="clip0_515_1332">
<rect width="80" height="80" fill="white" transform="translate(0.5 0.5)"/>
</clipPath>
</defs>
</svg>
