<svg width="24" height="24" viewBox="0 0 24 24" fill="none" xmlns="http://www.w3.org/2000/svg">
<path d="M10.5504 2.8758L4.59542 6.1818C4.13053 6.44072 3.74351 6.81946 3.47461 7.27865C3.20571 7.73783 3.06476 8.26068 3.06642 8.7928V15.2068C3.06494 15.7388 3.20598 16.2614 3.47487 16.7204C3.74375 17.1794 4.13068 17.558 4.59542 17.8168L10.5524 21.1238C10.9955 21.3706 11.4943 21.5001 12.0014 21.5001C12.5086 21.5001 13.0073 21.3706 13.4504 21.1238L19.4074 17.8178C19.8723 17.5589 20.2593 17.1801 20.5282 16.721C20.7971 16.2618 20.9381 15.7389 20.9364 15.2068V8.7928C20.9379 8.26085 20.7969 7.73821 20.528 7.27922C20.2591 6.82022 19.8722 6.44163 19.4074 6.1828L13.4504 2.8758C13.0073 2.62904 12.5086 2.49951 12.0014 2.49951C11.4943 2.49951 10.9955 2.62904 10.5524 2.8758H10.5504Z" stroke="#979797" stroke-width="2"/>
<path d="M20.3299 6.99561L11.9999 11.9996M11.9999 11.9996L3.66992 6.99561M11.9999 11.9996V21.4896" stroke="#979797" stroke-width="2"/>
</svg>
