<svg width="163" height="45" viewBox="0 0 163 45" fill="none" xmlns="http://www.w3.org/2000/svg">
<g clip-path="url(#clip0_464_1358)">
<path fill-rule="evenodd" clip-rule="evenodd" d="M159.877 24.3306C160.186 23.9492 160.803 23.9492 161.112 24.4068L162.269 26.0085C162.5 26.3136 162.5 26.7712 162.269 27.0763C160.186 29.7458 156.637 32.2628 152.24 32.4916C148.846 32.7204 145.992 31.4238 144.449 28.9831C144.14 28.5255 143.446 28.4492 143.137 28.9068C141.286 31.3475 139.126 33.2543 136.812 33.3306C132.723 33.5594 131.566 30.8136 132.569 24.8645C132.646 24.2543 132.106 23.7967 131.566 23.9492C130.717 24.178 129.792 24.2543 128.866 24.178C128.48 24.178 128.095 24.4068 128.017 24.7119C126.475 29.6695 122.926 34.2458 118.22 34.4746C115.212 34.6272 110.815 32.9492 111.2 25.856C111.2 25.2458 110.737 24.8645 110.197 25.017C109.272 25.3221 108.269 25.3984 107.266 25.3221C106.88 25.3221 106.495 25.5509 106.417 25.856C104.875 30.8136 101.326 35.3899 96.6203 35.6187C93.6118 35.7712 89.2146 34.0933 89.6003 27C89.6003 26.3899 89.1375 26.0085 88.5975 26.1611C87.6718 26.4661 86.6689 26.5424 85.6661 26.4661C85.2803 26.4661 84.8946 26.695 84.8175 27C83.2746 31.9577 79.7261 36.5339 75.0203 36.7628C72.8603 36.9153 70.0061 36.0763 68.6946 33.0255C68.4632 32.4153 67.6918 32.339 67.3061 32.8729C65.4546 35.3899 63.2175 37.2967 60.9032 37.4492C58.5118 37.6017 57.2003 36.6102 56.5832 34.9322C56.3518 34.3221 55.6575 34.1695 55.1946 34.6272C53.5746 36.5339 51.6461 37.9068 49.7946 38.0594C46.8632 38.2119 45.1661 36.0763 45.0889 33.4831C44.9346 30.4323 46.2461 26.9238 47.7118 23.0339C47.9432 22.5 47.5575 21.8899 47.0175 21.8899C46.1689 21.8899 45.1661 21.7373 44.3175 21.5848C43.9318 21.5085 43.4689 21.7373 43.3918 22.195C41.6175 28.3729 38.9946 34.3983 36.6803 37.9831C36.4489 38.3645 35.9089 38.517 35.5232 38.2119L33.8261 36.9916C33.4403 36.7628 33.3632 36.2289 33.5946 35.8475C36.8346 30.6611 39.7661 22.5763 40.7689 16.6272C40.8461 16.2458 41.1546 15.9407 41.5403 15.9407L43.8546 15.7882C44.3946 15.7882 44.7803 16.2458 44.7032 16.7797V16.856C44.6261 17.3136 44.9346 17.7712 45.3975 17.8475C47.4803 18.1526 50.4889 18.1526 52.5718 18.0763C53.1889 18.0763 53.5746 18.6865 53.3432 19.2204C51.6461 23.6441 49.4089 29.7458 49.5632 32.1102C49.6403 33.178 50.1032 33.7882 50.9518 33.7119C52.5718 33.6356 55.1175 30.356 57.0461 26.7712C57.0461 26.695 57.1232 26.6187 57.1232 26.5424C57.7403 23.7204 58.7432 20.517 59.6689 17.3136L59.7461 17.0848C59.8232 16.7797 60.1318 16.5509 60.4403 16.4746L63.2175 16.3221C63.7575 16.3221 64.2203 16.856 64.0661 17.3899C63.9118 17.8475 63.7575 18.3051 63.6803 18.7628C61.2889 26.6187 59.2061 33.178 61.9832 33.0255C63.7575 32.9492 66.3032 29.8984 68.4632 25.7034C68.4632 25.6272 68.5403 25.5509 68.5403 25.4746C68.6175 24.9407 68.7718 24.3306 68.926 23.7204C70.1603 18.6865 71.6261 13.7289 73.0918 8.77123C73.5546 7.24581 74.0175 5.72039 74.4032 4.19496C74.4803 3.88988 74.7889 3.58479 75.1746 3.58479L78.0289 3.43225C78.5689 3.43225 79.0318 3.96615 78.8775 4.50005C77.7203 8.00852 76.5632 11.6695 75.4832 15.2543C75.2518 16.017 76.1003 16.6272 76.7175 16.1695C77.7975 15.4068 79.1089 14.9492 80.3432 14.8729C83.5061 14.7204 85.6661 17.2373 85.8975 21.1272C85.8975 21.356 85.8975 21.5848 85.8975 21.8136C85.8975 22.2712 86.206 22.5763 86.6689 22.6526C88.1346 22.8051 89.6775 22.3475 90.8346 21.2797C90.9889 21.2034 91.0661 21.0509 91.0661 20.8984C92.2232 16.3984 93.5346 11.9746 94.8461 7.47462C95.3089 5.9492 95.6946 4.42378 96.1575 2.89835C96.2346 2.59327 96.5432 2.28818 96.9289 2.28818L99.7832 2.13564C100.323 2.13564 100.786 2.66954 100.632 3.20344C99.4746 6.71191 98.3175 10.3729 97.2375 13.9577C97.0061 14.7204 97.8546 15.3306 98.4718 14.8729C99.5518 14.1102 100.863 13.6526 102.097 13.5763C105.26 13.4238 107.42 15.9407 107.652 19.8306C107.652 20.0594 107.652 20.2882 107.652 20.517C107.652 20.9746 107.96 21.2797 108.423 21.356C109.889 21.5085 111.432 21.0509 112.589 19.9831C112.743 19.9068 112.82 19.7543 112.82 19.6017C113.977 15.1017 115.289 10.678 116.6 6.17801C117.063 4.65259 117.449 3.12717 117.912 1.60174C117.989 1.29666 118.297 0.991572 118.683 0.991572L121.537 0.83903C122.077 0.83903 122.54 1.37293 122.386 1.90683C121.229 5.4153 120.072 9.07632 118.992 12.6611C118.76 13.4238 119.609 14.0339 120.226 13.5763C121.306 12.8136 122.617 12.356 123.852 12.2797C127.015 12.1272 129.175 14.6441 129.406 18.5339C129.406 18.7628 129.406 18.9916 129.406 19.2204C129.406 19.678 129.715 19.9831 130.177 20.0594C131.643 20.2119 133.109 19.7543 134.266 18.839C134.42 18.7628 134.497 18.6102 134.497 18.3814C135.809 13.3475 137.815 6.63564 139.666 0.305131C139.743 4.65512e-05 140.052 -0.228767 140.36 -0.305038L143.137 -0.457581C143.677 -0.457581 144.14 0.0763178 143.986 0.610216C141.363 9.15259 139.28 16.5509 138.123 20.9746C136.58 26.9238 136.503 28.678 138.277 28.5255C139.743 28.4492 141.749 26.3899 143.6 23.2628C143.677 23.1102 143.677 23.0339 143.755 22.8814C143.986 16.6272 147.92 10.9068 153.706 10.6017C157.563 10.3729 159.723 13.2712 159.877 16.0933C160.186 21.5085 154.709 25.017 149.463 24.7119C148.846 24.6356 148.383 25.3221 148.692 25.856C149.463 27.3814 151.006 28.2967 153.629 28.1441C155.557 28.4492 158.257 26.2373 159.877 24.3306ZM72.8603 25.856C71.6261 30.8136 73.0918 32.7204 75.0975 32.6441C78.3375 32.4916 81.4232 26.6187 81.1918 22.1187C81.1146 20.1356 79.9575 19.1441 78.5689 19.2204C76.2546 19.3729 73.8632 21.8899 72.8603 25.856ZM94.4603 24.6356C93.2261 29.5933 94.6918 31.5 96.6975 31.4238C99.9375 31.2712 103.023 25.3984 102.792 20.8984C102.715 18.9153 101.557 17.9238 100.169 18C97.9318 18.1526 95.4632 20.6695 94.4603 24.6356ZM116.137 23.4153C114.903 28.3729 116.369 30.2797 118.375 30.2034C121.615 30.0509 124.7 24.178 124.469 19.678C124.392 17.695 123.235 16.7034 121.846 16.7797C119.532 16.9323 117.14 19.4492 116.137 23.4153ZM155.249 16.9323C155.249 15.6356 154.4 14.7204 153.089 14.7967C150.543 14.9492 148.537 17.695 147.843 21.0509C147.766 21.5848 148.152 22.0424 148.692 22.0424C152.009 21.9661 155.326 19.7543 155.249 16.9323ZM34.7518 19.3729C34.4432 9.30513 27.8089 2.66954 18.0118 3.05089C13.7689 3.20344 8.98606 4.80513 5.36034 7.55089C5.05177 7.77971 4.89749 8.31361 5.12891 8.69496L6.67177 11.1356C6.9032 11.5933 7.52034 11.6695 7.90606 11.3645C10.6832 9.07632 14.3861 7.62717 18.0118 7.47462C24.7232 7.16954 29.6603 11.4407 29.8918 19.6017C30.2775 29.1356 23.7975 40.0424 13.3832 40.6526C12.9975 40.6526 12.6118 40.6526 12.2261 40.6526C11.6861 40.6526 11.3003 40.1187 11.4546 39.5848C13.4603 31.5763 15.7746 22.9577 18.1661 14.9492C18.3203 14.4153 17.9346 13.8051 17.3175 13.8814L14.3861 14.1102C14.0775 14.1102 13.7689 14.339 13.6146 14.7204C11.3003 22.5763 8.98606 31.1187 6.98034 39.1272C6.82606 39.5848 6.3632 39.8899 5.97749 39.7373C4.89749 39.356 3.89463 38.9746 3.04606 38.4407C2.66034 38.2119 2.12034 38.3645 1.88891 38.8221L0.577486 41.4916C0.346057 41.8729 0.500343 42.4068 0.886057 42.5594C3.81749 44.2373 8.36891 45.1526 12.9203 44.9238C27.8089 44.0848 35.1375 30.5085 34.7518 19.3729ZM63.9889 7.017C62.2146 7.09327 60.5946 9.15259 60.6718 11.2119C60.7489 12.5848 61.6746 13.5763 63.0632 13.5C64.8375 13.4238 66.5346 11.2882 66.4575 9.22886C66.3803 7.85598 65.3003 6.94072 63.9889 7.017Z" fill="white"/>
</g>
<defs>
<clipPath id="clip0_464_1358">
<rect width="162" height="45" fill="white" transform="translate(0.5)"/>
</clipPath>
</defs>
</svg>
