<svg width="20" height="20" viewBox="0 0 20 20" fill="none" xmlns="http://www.w3.org/2000/svg">
<path d="M10 18.9996C14.9706 18.9996 19 14.9702 19 9.99978C19 5.02934 14.9706 1 10 1C5.02944 1 1 5.02934 1 9.99978C1 14.9702 5.02944 18.9996 10 18.9996Z" stroke="white" stroke-width="2" stroke-linecap="round" stroke-linejoin="round"/>
<path d="M19 11.1376C18.1533 10.9793 17.2937 10.8998 16.4323 10.9C11.6155 10.9 7.3306 13.3678 4.6 17.1999M16.3 3.7002C13.483 7.00041 9.2512 9.10006 4.519 9.10006C3.3076 9.10006 2.1295 8.96237 1 8.70317" stroke="white" stroke-width="2" stroke-linecap="round" stroke-linejoin="round"/>
<path d="M12.3562 19C12.5854 17.8866 12.7006 16.7528 12.7 15.6161C12.7 9.93359 9.8506 4.91262 5.5 1.90039" stroke="white" stroke-width="2" stroke-linecap="round" stroke-linejoin="round"/>
</svg>
