<svg width="52" height="52" viewBox="0 0 52 52" fill="none" xmlns="http://www.w3.org/2000/svg">
<path d="M7.14198 44.6376L20.9306 30.8489M38.2943 24.7172L34.1668 37.0997C34.1009 37.2982 33.9882 37.4779 33.838 37.6235C33.6879 37.7691 33.5049 37.8763 33.3045 37.9361L8.00214 45.4566C7.77419 45.5243 7.53203 45.5281 7.30203 45.4678C7.07202 45.4074 6.86298 45.2851 6.69765 45.1142C6.53232 44.9433 6.41704 44.7303 6.36435 44.4984C6.31166 44.2665 6.32358 44.0246 6.39881 43.7991L14.6148 19.1554C14.6737 18.9784 14.77 18.8162 14.8971 18.6798C15.0242 18.5433 15.1792 18.4358 15.3515 18.3646L27.0233 13.5589C27.2606 13.4609 27.5216 13.4353 27.7734 13.4855C28.0252 13.5356 28.2565 13.6592 28.4381 13.8406L37.9801 23.3869C38.1509 23.5576 38.2707 23.7725 38.3262 24.0074C38.3817 24.2424 38.3706 24.4882 38.2943 24.7172Z" stroke="white" stroke-width="2" stroke-linecap="round" stroke-linejoin="round"/>
<path d="M38.5504 23.9546L44.6777 17.8251C45.4901 17.0125 45.9464 15.9105 45.9464 14.7615C45.9464 13.6124 45.4901 12.5104 44.6777 11.6978L40.0844 7.10015C39.682 6.69757 39.2042 6.37823 38.6783 6.16035C38.1525 5.94247 37.5888 5.83032 37.0196 5.83032C36.4504 5.83032 35.8868 5.94247 35.3609 6.16035C34.8351 6.37823 34.3573 6.69757 33.9549 7.10015L27.8275 13.2296M25.5265 26.2513C25.2247 25.9496 24.8663 25.7102 24.4719 25.547C24.0775 25.3837 23.6549 25.2998 23.228 25.2999C22.8012 25.3 22.3786 25.3841 21.9843 25.5476C21.59 25.711 21.2317 25.9505 20.93 26.2524C20.6282 26.5543 20.3889 26.9126 20.2256 27.307C20.0624 27.7014 19.9784 28.1241 19.9785 28.5509C19.9786 28.9777 20.0628 29.4004 20.2262 29.7947C20.3897 30.189 20.6292 30.5472 20.931 30.849C21.5407 31.4584 22.3675 31.8006 23.2296 31.8004C24.0916 31.8002 24.9182 31.4576 25.5276 30.8479C26.137 30.2382 26.4793 29.4114 26.4791 28.5494C26.4789 27.6874 26.1362 26.8607 25.5265 26.2513Z" stroke="white" stroke-width="2" stroke-linecap="round" stroke-linejoin="round"/>
</svg>
