<svg width="127" height="45" viewBox="0 0 127 45" fill="none" xmlns="http://www.w3.org/2000/svg">
<g clip-path="url(#clip0_464_1354)">
<path d="M0.5 0.00217202V34.7621L5.03969 34.7759V18.2228H15.9852V13.8474H5.03969V4.37536H19.2946V0L0.5 0.00217202Z" fill="white"/>
<path d="M27.4665 7.05826C29.1017 7.05826 30.4272 5.75232 30.4272 4.14135C30.4272 2.53038 29.1017 1.22444 27.4665 1.22444C25.8315 1.22444 24.5059 2.53038 24.5059 4.14135C24.5059 5.75232 25.8315 7.05826 27.4665 7.05826Z" fill="white"/>
<path d="M25.1562 11.4336V34.7689H29.6959V11.4336H25.1562Z" fill="white"/>
<path fill-rule="evenodd" clip-rule="evenodd" d="M46.5342 10.753C40.5058 10.753 36.2988 15.7761 36.2988 21.74C36.2988 27.704 40.5058 32.7271 46.5342 32.7271C49.2942 32.7271 51.5686 31.6743 53.224 29.9607V33.0674C53.224 36.9336 50.1415 40.1652 46.1184 40.1652C44.6724 40.1652 43.2357 39.6129 42.091 38.8357L39.8163 42.7171C41.633 43.8708 43.7964 44.5405 46.1184 44.5405C52.55 44.5405 57.7636 39.4038 57.7636 33.0674V11.4336H53.224V13.5195C51.5686 11.8057 49.2942 10.753 46.5342 10.753ZM40.8385 21.74C40.8385 18.0381 43.7127 15.1284 47.0277 15.1284C50.3429 15.1284 53.217 18.0381 53.217 21.74C53.217 25.4419 50.3429 28.3517 47.0277 28.3517C43.7127 28.3517 40.8385 25.4419 40.8385 21.74Z" fill="white"/>
<path d="M74.1208 15.1284C71.4365 15.1284 69.2604 17.3695 69.2604 20.0141V34.769H64.7207V11.4336H69.2604V13.5713C70.5905 11.8772 72.5502 10.753 75.1076 10.753C78.2886 10.753 80.73 12.3096 82.144 14.6918C83.7164 12.3908 86.2812 10.753 89.3682 10.753C94.5351 10.753 97.7511 14.86 97.7815 19.9412C97.7815 19.9565 97.7815 19.9719 97.7815 19.9874V19.9883V19.989V19.9898C97.7815 19.9979 97.7815 20.006 97.7815 20.0141V34.769H93.2418V20.0141C93.2418 17.3695 91.0657 15.1284 88.3814 15.1284C85.6969 15.1284 83.521 17.3695 83.521 20.0141V34.769H78.9813V20.0141C78.9813 17.3695 76.8052 15.1284 74.1208 15.1284Z" fill="white"/>
<path fill-rule="evenodd" clip-rule="evenodd" d="M121.96 14.0789C119.941 12.0243 117.175 10.753 113.966 10.753C107.213 10.753 102.42 16.3866 102.42 23.1012C102.42 29.8158 107.213 35.4495 113.966 35.4495C117.175 35.4495 119.941 34.1783 121.96 32.1236V34.769H126.5V11.4336H121.96V14.0789ZM106.96 23.1012C106.96 18.6465 110.422 15.1284 114.46 15.1284C118.498 15.1284 121.96 18.6465 121.96 23.1012C121.96 27.556 118.498 31.0741 114.46 31.0741C110.422 31.0741 106.96 27.556 106.96 23.1012Z" fill="white"/>
</g>
<defs>
<clipPath id="clip0_464_1354">
<rect width="126" height="45" fill="white" transform="translate(0.5)"/>
</clipPath>
</defs>
</svg>
