<svg width="144" height="144" viewBox="0 0 144 144" fill="none" xmlns="http://www.w3.org/2000/svg">
<path d="M67.1015 31.6254V32.8325V52.2005C67.1015 53.5001 67.6177 54.7464 68.5367 55.6653C69.4556 56.5843 70.7019 57.1005 72.0015 57.1005C73.3011 57.1005 74.5474 56.5843 75.4663 55.6653C76.3852 54.7464 76.9015 53.5001 76.9015 52.2005V32.8325V31.6254L77.7551 32.479L84.7391 39.463L84.7453 39.4692L84.7513 39.4757C85.1999 39.9571 85.7409 40.3432 86.3419 40.611C86.943 40.8788 87.5918 41.0228 88.2498 41.0345C88.9077 41.0461 89.5612 40.925 90.1713 40.6786C90.7815 40.4322 91.3357 40.0653 91.801 39.6C92.2663 39.1347 92.6331 38.5805 92.8796 37.9704C93.126 37.3602 93.247 36.7067 93.2354 36.0488C93.2238 35.3909 93.0798 34.742 92.812 34.1409C92.5442 33.5399 92.1581 32.9989 91.6766 32.5503L91.6702 32.5443L91.6639 32.5381L75.4642 16.3383L67.1015 31.6254ZM67.1015 31.6254L66.2479 32.479M67.1015 31.6254L66.2479 32.479M66.2479 32.479L59.2704 39.4566C58.3422 40.3184 57.1163 40.7874 55.8498 40.7651C54.5803 40.7427 53.3691 40.2284 52.4714 39.3306C51.5736 38.4329 51.0594 37.2217 51.037 35.9523C51.0146 34.6857 51.4836 33.4598 52.3455 32.5317L68.5388 16.3383L66.2479 32.479ZM31.6264 76.9005H32.8335H52.2015C53.5011 76.9005 54.7474 76.3843 55.6663 75.4653C56.5852 74.5464 57.1015 73.3001 57.1015 72.0005C57.1015 70.701 56.5852 69.4546 55.6663 68.5357C54.7474 67.6168 53.5011 67.1005 52.2015 67.1005H32.8335H31.6264L32.4799 66.247L39.4575 59.2694C40.3193 58.3412 40.7884 57.1154 40.766 55.8488C40.7436 54.5793 40.2294 53.3682 39.3316 52.4704C38.4339 51.5726 37.2227 51.0584 35.9532 51.036C34.6867 51.0136 33.4608 51.4827 32.5326 52.3445L16.3393 68.5379L31.6264 76.9005ZM31.6264 76.9005L32.4799 77.7541M31.6264 76.9005L32.4799 77.7541M32.4799 77.7541L39.4576 84.7317C40.3194 85.6599 40.7884 86.8857 40.766 88.1523C40.7436 89.4217 40.2294 90.6329 39.3316 91.5306C38.4339 92.4284 37.2227 92.9427 35.9532 92.9651C34.6867 92.9874 33.4608 92.5184 32.5326 91.6566L16.3393 75.4632L32.4799 77.7541ZM91.6766 111.451L91.6702 111.457L91.6639 111.463L75.4642 127.663C74.5454 128.58 73.3 129.096 72.0015 129.096C70.703 129.096 69.4576 128.58 68.5388 127.663L52.3454 111.469C51.4836 110.541 51.0146 109.315 51.037 108.049C51.0594 106.779 51.5736 105.568 52.4714 104.67C53.3691 103.773 54.5803 103.258 55.8498 103.236C57.1163 103.214 58.3422 103.683 59.2704 104.544L66.2479 111.522L67.1015 112.376V111.169V91.8005C67.1015 90.501 67.6177 89.2546 68.5367 88.3357C69.4556 87.4168 70.7019 86.9005 72.0015 86.9005C73.3011 86.9005 74.5474 87.4168 75.4663 88.3357C76.3852 89.2546 76.9015 90.501 76.9015 91.8005V111.169V112.376L77.7551 111.522L84.7391 104.538L84.7453 104.532L84.7513 104.525C85.1999 104.044 85.7409 103.658 86.3419 103.39C86.943 103.122 87.5918 102.978 88.2498 102.967C88.9077 102.955 89.5612 103.076 90.1713 103.322C90.7815 103.569 91.3357 103.936 91.801 104.401C92.2663 104.866 92.6331 105.421 92.8796 106.031C93.126 106.641 93.247 107.294 93.2354 107.952C93.2238 108.61 93.0798 109.259 92.812 109.86C92.5442 110.461 92.1581 111.002 91.6766 111.451ZM111.523 66.247L104.545 59.2694C103.684 58.3412 103.215 57.1153 103.237 55.8488C103.259 54.5793 103.774 53.3682 104.671 52.4704C105.569 51.5726 106.78 51.0584 108.05 51.036C109.316 51.0136 110.542 51.4826 111.47 52.3444L127.664 68.5379C128.581 69.4566 129.097 70.702 129.097 72.0005C129.097 73.299 128.581 74.5444 127.664 75.4632L111.464 91.663L111.458 91.6692L111.452 91.6757C111.003 92.1571 110.462 92.5432 109.861 92.811C109.26 93.0788 108.611 93.2228 107.953 93.2345C107.295 93.2461 106.642 93.125 106.032 92.8786C105.422 92.6321 104.867 92.2653 104.402 91.8C103.937 91.3347 103.57 90.7805 103.323 90.1704C103.077 89.5602 102.956 88.9067 102.968 88.2488C102.979 87.5909 103.123 86.942 103.391 86.3409C103.659 85.7399 104.045 85.1989 104.526 84.7503L104.533 84.7443L104.539 84.7381L111.523 77.7541L112.377 76.9005H111.169H91.8015C90.5019 76.9005 89.2556 76.3843 88.3367 75.4653C87.4177 74.5464 86.9015 73.3001 86.9015 72.0005C86.9015 70.701 87.4177 69.4546 88.3367 68.5357C89.2556 67.6168 90.5019 67.1005 91.8015 67.1005H111.169H112.377L111.523 66.247ZM72.0015 14.9053C73.2999 14.9053 74.5452 15.4206 75.4639 16.3381H68.5391C69.4578 15.4206 70.7031 14.9053 72.0015 14.9053ZM14.9062 72.0005C14.9062 70.7021 15.4216 69.4568 16.3391 68.5381V75.463C15.4216 74.5442 14.9062 73.2989 14.9062 72.0005Z" fill="#ACACAC" fill-opacity="0.2" style="mix-blend-mode:luminosity"/>
<path d="M67.1015 31.6254V32.8325V52.2005C67.1015 53.5001 67.6177 54.7464 68.5367 55.6653C69.4556 56.5843 70.7019 57.1005 72.0015 57.1005C73.3011 57.1005 74.5474 56.5843 75.4663 55.6653C76.3852 54.7464 76.9015 53.5001 76.9015 52.2005V32.8325V31.6254L77.7551 32.479L84.7391 39.463L84.7453 39.4692L84.7513 39.4757C85.1999 39.9571 85.7409 40.3432 86.3419 40.611C86.943 40.8788 87.5918 41.0228 88.2498 41.0345C88.9077 41.0461 89.5612 40.925 90.1713 40.6786C90.7815 40.4322 91.3357 40.0653 91.801 39.6C92.2663 39.1347 92.6331 38.5805 92.8796 37.9704C93.126 37.3602 93.247 36.7067 93.2354 36.0488C93.2238 35.3909 93.0798 34.742 92.812 34.1409C92.5442 33.5399 92.1581 32.9989 91.6766 32.5503L91.6702 32.5443L91.6639 32.5381L75.4642 16.3383L67.1015 31.6254ZM67.1015 31.6254L66.2479 32.479M67.1015 31.6254L66.2479 32.479M66.2479 32.479L59.2704 39.4566C58.3422 40.3184 57.1163 40.7874 55.8498 40.7651C54.5803 40.7427 53.3691 40.2284 52.4714 39.3306C51.5736 38.4329 51.0594 37.2217 51.037 35.9523C51.0146 34.6857 51.4836 33.4598 52.3455 32.5317L68.5388 16.3383L66.2479 32.479ZM31.6264 76.9005H32.8335H52.2015C53.5011 76.9005 54.7474 76.3843 55.6663 75.4653C56.5852 74.5464 57.1015 73.3001 57.1015 72.0005C57.1015 70.701 56.5852 69.4546 55.6663 68.5357C54.7474 67.6168 53.5011 67.1005 52.2015 67.1005H32.8335H31.6264L32.4799 66.247L39.4575 59.2694C40.3193 58.3412 40.7884 57.1154 40.766 55.8488C40.7436 54.5793 40.2294 53.3682 39.3316 52.4704C38.4339 51.5726 37.2227 51.0584 35.9532 51.036C34.6867 51.0136 33.4608 51.4827 32.5326 52.3445L16.3393 68.5379L31.6264 76.9005ZM31.6264 76.9005L32.4799 77.7541M31.6264 76.9005L32.4799 77.7541M32.4799 77.7541L39.4576 84.7317C40.3194 85.6599 40.7884 86.8857 40.766 88.1523C40.7436 89.4217 40.2294 90.6329 39.3316 91.5306C38.4339 92.4284 37.2227 92.9427 35.9532 92.9651C34.6867 92.9874 33.4608 92.5184 32.5326 91.6566L16.3393 75.4632L32.4799 77.7541ZM91.6766 111.451L91.6702 111.457L91.6639 111.463L75.4642 127.663C74.5454 128.58 73.3 129.096 72.0015 129.096C70.703 129.096 69.4576 128.58 68.5388 127.663L52.3454 111.469C51.4836 110.541 51.0146 109.315 51.037 108.049C51.0594 106.779 51.5736 105.568 52.4714 104.67C53.3691 103.773 54.5803 103.258 55.8498 103.236C57.1163 103.214 58.3422 103.683 59.2704 104.544L66.2479 111.522L67.1015 112.376V111.169V91.8005C67.1015 90.501 67.6177 89.2546 68.5367 88.3357C69.4556 87.4168 70.7019 86.9005 72.0015 86.9005C73.3011 86.9005 74.5474 87.4168 75.4663 88.3357C76.3852 89.2546 76.9015 90.501 76.9015 91.8005V111.169V112.376L77.7551 111.522L84.7391 104.538L84.7453 104.532L84.7513 104.525C85.1999 104.044 85.7409 103.658 86.3419 103.39C86.943 103.122 87.5918 102.978 88.2498 102.967C88.9077 102.955 89.5612 103.076 90.1713 103.322C90.7815 103.569 91.3357 103.936 91.801 104.401C92.2663 104.866 92.6331 105.421 92.8796 106.031C93.126 106.641 93.247 107.294 93.2354 107.952C93.2238 108.61 93.0798 109.259 92.812 109.86C92.5442 110.461 92.1581 111.002 91.6766 111.451ZM111.523 66.247L104.545 59.2694C103.684 58.3412 103.215 57.1153 103.237 55.8488C103.259 54.5793 103.774 53.3682 104.671 52.4704C105.569 51.5726 106.78 51.0584 108.05 51.036C109.316 51.0136 110.542 51.4826 111.47 52.3444L127.664 68.5379C128.581 69.4566 129.097 70.702 129.097 72.0005C129.097 73.299 128.581 74.5444 127.664 75.4632L111.464 91.663L111.458 91.6692L111.452 91.6757C111.003 92.1571 110.462 92.5432 109.861 92.811C109.26 93.0788 108.611 93.2228 107.953 93.2345C107.295 93.2461 106.642 93.125 106.032 92.8786C105.422 92.6321 104.867 92.2653 104.402 91.8C103.937 91.3347 103.57 90.7805 103.323 90.1704C103.077 89.5602 102.956 88.9067 102.968 88.2488C102.979 87.5909 103.123 86.942 103.391 86.3409C103.659 85.7399 104.045 85.1989 104.526 84.7503L104.533 84.7443L104.539 84.7381L111.523 77.7541L112.377 76.9005H111.169H91.8015C90.5019 76.9005 89.2556 76.3843 88.3367 75.4653C87.4177 74.5464 86.9015 73.3001 86.9015 72.0005C86.9015 70.701 87.4177 69.4546 88.3367 68.5357C89.2556 67.6168 90.5019 67.1005 91.8015 67.1005H111.169H112.377L111.523 66.247ZM72.0015 14.9053C73.2999 14.9053 74.5452 15.4206 75.4639 16.3381H68.5391C69.4578 15.4206 70.7031 14.9053 72.0015 14.9053ZM14.9062 72.0005C14.9062 70.7021 15.4216 69.4568 16.3391 68.5381V75.463C15.4216 74.5442 14.9062 73.2989 14.9062 72.0005Z" fill="#D5D5D5" fill-opacity="0.3" style="mix-blend-mode:multiply"/>
<path d="M67.1015 31.6254V32.8325V52.2005C67.1015 53.5001 67.6177 54.7464 68.5367 55.6653C69.4556 56.5843 70.7019 57.1005 72.0015 57.1005C73.3011 57.1005 74.5474 56.5843 75.4663 55.6653C76.3852 54.7464 76.9015 53.5001 76.9015 52.2005V32.8325V31.6254L77.7551 32.479L84.7391 39.463L84.7453 39.4692L84.7513 39.4757C85.1999 39.9571 85.7409 40.3432 86.3419 40.611C86.943 40.8788 87.5918 41.0228 88.2498 41.0345C88.9077 41.0461 89.5612 40.925 90.1713 40.6786C90.7815 40.4322 91.3357 40.0653 91.801 39.6C92.2663 39.1347 92.6331 38.5805 92.8796 37.9704C93.126 37.3602 93.247 36.7067 93.2354 36.0488C93.2238 35.3909 93.0798 34.742 92.812 34.1409C92.5442 33.5399 92.1581 32.9989 91.6766 32.5503L91.6702 32.5443L91.6639 32.5381L75.4642 16.3383L67.1015 31.6254ZM67.1015 31.6254L66.2479 32.479M67.1015 31.6254L66.2479 32.479M66.2479 32.479L59.2704 39.4566C58.3422 40.3184 57.1163 40.7874 55.8498 40.7651C54.5803 40.7427 53.3691 40.2284 52.4714 39.3306C51.5736 38.4329 51.0594 37.2217 51.037 35.9523C51.0146 34.6857 51.4836 33.4598 52.3455 32.5317L68.5388 16.3383L66.2479 32.479ZM31.6264 76.9005H32.8335H52.2015C53.5011 76.9005 54.7474 76.3843 55.6663 75.4653C56.5852 74.5464 57.1015 73.3001 57.1015 72.0005C57.1015 70.701 56.5852 69.4546 55.6663 68.5357C54.7474 67.6168 53.5011 67.1005 52.2015 67.1005H32.8335H31.6264L32.4799 66.247L39.4575 59.2694C40.3193 58.3412 40.7884 57.1154 40.766 55.8488C40.7436 54.5793 40.2294 53.3682 39.3316 52.4704C38.4339 51.5726 37.2227 51.0584 35.9532 51.036C34.6867 51.0136 33.4608 51.4827 32.5326 52.3445L16.3393 68.5379L31.6264 76.9005ZM31.6264 76.9005L32.4799 77.7541M31.6264 76.9005L32.4799 77.7541M32.4799 77.7541L39.4576 84.7317C40.3194 85.6599 40.7884 86.8857 40.766 88.1523C40.7436 89.4217 40.2294 90.6329 39.3316 91.5306C38.4339 92.4284 37.2227 92.9427 35.9532 92.9651C34.6867 92.9874 33.4608 92.5184 32.5326 91.6566L16.3393 75.4632L32.4799 77.7541ZM91.6766 111.451L91.6702 111.457L91.6639 111.463L75.4642 127.663C74.5454 128.58 73.3 129.096 72.0015 129.096C70.703 129.096 69.4576 128.58 68.5388 127.663L52.3454 111.469C51.4836 110.541 51.0146 109.315 51.037 108.049C51.0594 106.779 51.5736 105.568 52.4714 104.67C53.3691 103.773 54.5803 103.258 55.8498 103.236C57.1163 103.214 58.3422 103.683 59.2704 104.544L66.2479 111.522L67.1015 112.376V111.169V91.8005C67.1015 90.501 67.6177 89.2546 68.5367 88.3357C69.4556 87.4168 70.7019 86.9005 72.0015 86.9005C73.3011 86.9005 74.5474 87.4168 75.4663 88.3357C76.3852 89.2546 76.9015 90.501 76.9015 91.8005V111.169V112.376L77.7551 111.522L84.7391 104.538L84.7453 104.532L84.7513 104.525C85.1999 104.044 85.7409 103.658 86.3419 103.39C86.943 103.122 87.5918 102.978 88.2498 102.967C88.9077 102.955 89.5612 103.076 90.1713 103.322C90.7815 103.569 91.3357 103.936 91.801 104.401C92.2663 104.866 92.6331 105.421 92.8796 106.031C93.126 106.641 93.247 107.294 93.2354 107.952C93.2238 108.61 93.0798 109.259 92.812 109.86C92.5442 110.461 92.1581 111.002 91.6766 111.451ZM111.523 66.247L104.545 59.2694C103.684 58.3412 103.215 57.1153 103.237 55.8488C103.259 54.5793 103.774 53.3682 104.671 52.4704C105.569 51.5726 106.78 51.0584 108.05 51.036C109.316 51.0136 110.542 51.4826 111.47 52.3444L127.664 68.5379C128.581 69.4566 129.097 70.702 129.097 72.0005C129.097 73.299 128.581 74.5444 127.664 75.4632L111.464 91.663L111.458 91.6692L111.452 91.6757C111.003 92.1571 110.462 92.5432 109.861 92.811C109.26 93.0788 108.611 93.2228 107.953 93.2345C107.295 93.2461 106.642 93.125 106.032 92.8786C105.422 92.6321 104.867 92.2653 104.402 91.8C103.937 91.3347 103.57 90.7805 103.323 90.1704C103.077 89.5602 102.956 88.9067 102.968 88.2488C102.979 87.5909 103.123 86.942 103.391 86.3409C103.659 85.7399 104.045 85.1989 104.526 84.7503L104.533 84.7443L104.539 84.7381L111.523 77.7541L112.377 76.9005H111.169H91.8015C90.5019 76.9005 89.2556 76.3843 88.3367 75.4653C87.4177 74.5464 86.9015 73.3001 86.9015 72.0005C86.9015 70.701 87.4177 69.4546 88.3367 68.5357C89.2556 67.6168 90.5019 67.1005 91.8015 67.1005H111.169H112.377L111.523 66.247ZM72.0015 14.9053C73.2999 14.9053 74.5452 15.4206 75.4639 16.3381H68.5391C69.4578 15.4206 70.7031 14.9053 72.0015 14.9053ZM14.9062 72.0005C14.9062 70.7021 15.4216 69.4568 16.3391 68.5381V75.463C15.4216 74.5442 14.9062 73.2989 14.9062 72.0005Z" fill="url(#paint0_radial_594_482)" fill-opacity="0.25" style="mix-blend-mode:overlay"/>
<path d="M67.1015 31.6254V32.8325V52.2005C67.1015 53.5001 67.6177 54.7464 68.5367 55.6653C69.4556 56.5843 70.7019 57.1005 72.0015 57.1005C73.3011 57.1005 74.5474 56.5843 75.4663 55.6653C76.3852 54.7464 76.9015 53.5001 76.9015 52.2005V32.8325V31.6254L77.7551 32.479L84.7391 39.463L84.7453 39.4692L84.7513 39.4757C85.1999 39.9571 85.7409 40.3432 86.3419 40.611C86.943 40.8788 87.5918 41.0228 88.2498 41.0345C88.9077 41.0461 89.5612 40.925 90.1713 40.6786C90.7815 40.4322 91.3357 40.0653 91.801 39.6C92.2663 39.1347 92.6331 38.5805 92.8796 37.9704C93.126 37.3602 93.247 36.7067 93.2354 36.0488C93.2238 35.3909 93.0798 34.742 92.812 34.1409C92.5442 33.5399 92.1581 32.9989 91.6766 32.5503L91.6702 32.5443L91.6639 32.5381L75.4642 16.3383L67.1015 31.6254ZM67.1015 31.6254L66.2479 32.479M67.1015 31.6254L66.2479 32.479M66.2479 32.479L59.2704 39.4566C58.3422 40.3184 57.1163 40.7874 55.8498 40.7651C54.5803 40.7427 53.3691 40.2284 52.4714 39.3306C51.5736 38.4329 51.0594 37.2217 51.037 35.9523C51.0146 34.6857 51.4836 33.4598 52.3455 32.5317L68.5388 16.3383L66.2479 32.479ZM31.6264 76.9005H32.8335H52.2015C53.5011 76.9005 54.7474 76.3843 55.6663 75.4653C56.5852 74.5464 57.1015 73.3001 57.1015 72.0005C57.1015 70.701 56.5852 69.4546 55.6663 68.5357C54.7474 67.6168 53.5011 67.1005 52.2015 67.1005H32.8335H31.6264L32.4799 66.247L39.4575 59.2694C40.3193 58.3412 40.7884 57.1154 40.766 55.8488C40.7436 54.5793 40.2294 53.3682 39.3316 52.4704C38.4339 51.5726 37.2227 51.0584 35.9532 51.036C34.6867 51.0136 33.4608 51.4827 32.5326 52.3445L16.3393 68.5379L31.6264 76.9005ZM31.6264 76.9005L32.4799 77.7541M31.6264 76.9005L32.4799 77.7541M32.4799 77.7541L39.4576 84.7317C40.3194 85.6599 40.7884 86.8857 40.766 88.1523C40.7436 89.4217 40.2294 90.6329 39.3316 91.5306C38.4339 92.4284 37.2227 92.9427 35.9532 92.9651C34.6867 92.9874 33.4608 92.5184 32.5326 91.6566L16.3393 75.4632L32.4799 77.7541ZM91.6766 111.451L91.6702 111.457L91.6639 111.463L75.4642 127.663C74.5454 128.58 73.3 129.096 72.0015 129.096C70.703 129.096 69.4576 128.58 68.5388 127.663L52.3454 111.469C51.4836 110.541 51.0146 109.315 51.037 108.049C51.0594 106.779 51.5736 105.568 52.4714 104.67C53.3691 103.773 54.5803 103.258 55.8498 103.236C57.1163 103.214 58.3422 103.683 59.2704 104.544L66.2479 111.522L67.1015 112.376V111.169V91.8005C67.1015 90.501 67.6177 89.2546 68.5367 88.3357C69.4556 87.4168 70.7019 86.9005 72.0015 86.9005C73.3011 86.9005 74.5474 87.4168 75.4663 88.3357C76.3852 89.2546 76.9015 90.501 76.9015 91.8005V111.169V112.376L77.7551 111.522L84.7391 104.538L84.7453 104.532L84.7513 104.525C85.1999 104.044 85.7409 103.658 86.3419 103.39C86.943 103.122 87.5918 102.978 88.2498 102.967C88.9077 102.955 89.5612 103.076 90.1713 103.322C90.7815 103.569 91.3357 103.936 91.801 104.401C92.2663 104.866 92.6331 105.421 92.8796 106.031C93.126 106.641 93.247 107.294 93.2354 107.952C93.2238 108.61 93.0798 109.259 92.812 109.86C92.5442 110.461 92.1581 111.002 91.6766 111.451ZM111.523 66.247L104.545 59.2694C103.684 58.3412 103.215 57.1153 103.237 55.8488C103.259 54.5793 103.774 53.3682 104.671 52.4704C105.569 51.5726 106.78 51.0584 108.05 51.036C109.316 51.0136 110.542 51.4826 111.47 52.3444L127.664 68.5379C128.581 69.4566 129.097 70.702 129.097 72.0005C129.097 73.299 128.581 74.5444 127.664 75.4632L111.464 91.663L111.458 91.6692L111.452 91.6757C111.003 92.1571 110.462 92.5432 109.861 92.811C109.26 93.0788 108.611 93.2228 107.953 93.2345C107.295 93.2461 106.642 93.125 106.032 92.8786C105.422 92.6321 104.867 92.2653 104.402 91.8C103.937 91.3347 103.57 90.7805 103.323 90.1704C103.077 89.5602 102.956 88.9067 102.968 88.2488C102.979 87.5909 103.123 86.942 103.391 86.3409C103.659 85.7399 104.045 85.1989 104.526 84.7503L104.533 84.7443L104.539 84.7381L111.523 77.7541L112.377 76.9005H111.169H91.8015C90.5019 76.9005 89.2556 76.3843 88.3367 75.4653C87.4177 74.5464 86.9015 73.3001 86.9015 72.0005C86.9015 70.701 87.4177 69.4546 88.3367 68.5357C89.2556 67.6168 90.5019 67.1005 91.8015 67.1005H111.169H112.377L111.523 66.247ZM72.0015 14.9053C73.2999 14.9053 74.5452 15.4206 75.4639 16.3381H68.5391C69.4578 15.4206 70.7031 14.9053 72.0015 14.9053ZM14.9062 72.0005C14.9062 70.7021 15.4216 69.4568 16.3391 68.5381V75.463C15.4216 74.5442 14.9062 73.2989 14.9062 72.0005Z" stroke="url(#paint1_linear_594_482)"/>
<defs>
<radialGradient id="paint0_radial_594_482" cx="0" cy="0" r="1" gradientUnits="userSpaceOnUse" gradientTransform="translate(72.0018 14.4535) rotate(90) scale(143.625 143.626)">
<stop stop-color="#FFFEFE"/>
<stop offset="1" stop-color="white" stop-opacity="0"/>
</radialGradient>
<linearGradient id="paint1_linear_594_482" x1="135.834" y1="51" x2="-6.42368" y2="183.25" gradientUnits="userSpaceOnUse">
<stop stop-color="#5581FF"/>
<stop offset="1" stop-color="white" stop-opacity="0.19"/>
</linearGradient>
</defs>
</svg>
