<svg width="144" height="144" viewBox="0 0 144 144" fill="none" xmlns="http://www.w3.org/2000/svg">
<path d="M72 53.5H72.0006C75.4378 53.5041 78.3905 54.7333 80.8316 57.1744C83.2725 59.6154 84.4999 62.5661 84.5 65.9994C84.5 65.9996 84.5 65.9998 84.5 66H84L72 53.5ZM72 53.5C68.5662 53.5 65.6152 54.7295 63.1741 57.1747C60.7336 59.6194 59.5042 62.5699 59.5 65.9994V66M72 53.5L59.5 66M59.5 66C59.5 69.4338 60.7295 72.3866 63.1744 74.8315M59.5 66L63.1744 74.8315M63.1744 74.8315C65.6193 77.2763 68.5701 78.504 72 78.5L63.1744 74.8315ZM29.6752 86.8175L35.5733 82.9301C36.2773 90.9871 37.3569 97.8864 38.8154 103.623C40.2908 109.426 42.5811 115.845 45.6822 122.877L24.5 131.264V96.45C24.5 94.533 24.9554 92.7131 25.87 90.9837C26.7824 89.2585 28.0482 87.8727 29.6721 86.8195L29.6752 86.8175ZM98.5 76.0498V76.05C98.5 83.8133 97.654 91.3515 95.9629 98.6653C94.2949 105.879 91.7557 112.823 88.3445 119.5H55.6514C52.243 113.017 49.7049 106.147 48.0373 98.888C46.3461 91.5262 45.5 83.9138 45.5 76.05C45.5 63.6181 47.962 51.9141 52.8843 40.9325C57.7486 30.0801 64.1249 21.8503 72.0002 16.2131C79.8792 21.8464 86.2574 30.0762 91.1217 40.9324C96.0439 51.918 98.504 63.622 98.5 76.0498ZM119.5 131.264L98.3178 122.877C101.419 115.845 103.709 109.426 105.185 103.623C106.643 97.8864 107.723 90.9871 108.427 82.9301L114.325 86.8175L114.328 86.8198C115.956 87.8731 117.224 89.2588 118.136 90.9837C119.05 92.7128 119.504 94.5323 119.5 96.449V96.45V131.264Z" fill="#ACACAC" fill-opacity="0.2" style="mix-blend-mode:luminosity"/>
<path d="M72 53.5H72.0006C75.4378 53.5041 78.3905 54.7333 80.8316 57.1744C83.2725 59.6154 84.4999 62.5661 84.5 65.9994C84.5 65.9996 84.5 65.9998 84.5 66H84L72 53.5ZM72 53.5C68.5662 53.5 65.6152 54.7295 63.1741 57.1747C60.7336 59.6194 59.5042 62.5699 59.5 65.9994V66M72 53.5L59.5 66M59.5 66C59.5 69.4338 60.7295 72.3866 63.1744 74.8315M59.5 66L63.1744 74.8315M63.1744 74.8315C65.6193 77.2763 68.5701 78.504 72 78.5L63.1744 74.8315ZM29.6752 86.8175L35.5733 82.9301C36.2773 90.9871 37.3569 97.8864 38.8154 103.623C40.2908 109.426 42.5811 115.845 45.6822 122.877L24.5 131.264V96.45C24.5 94.533 24.9554 92.7131 25.87 90.9837C26.7824 89.2585 28.0482 87.8727 29.6721 86.8195L29.6752 86.8175ZM98.5 76.0498V76.05C98.5 83.8133 97.654 91.3515 95.9629 98.6653C94.2949 105.879 91.7557 112.823 88.3445 119.5H55.6514C52.243 113.017 49.7049 106.147 48.0373 98.888C46.3461 91.5262 45.5 83.9138 45.5 76.05C45.5 63.6181 47.962 51.9141 52.8843 40.9325C57.7486 30.0801 64.1249 21.8503 72.0002 16.2131C79.8792 21.8464 86.2574 30.0762 91.1217 40.9324C96.0439 51.918 98.504 63.622 98.5 76.0498ZM119.5 131.264L98.3178 122.877C101.419 115.845 103.709 109.426 105.185 103.623C106.643 97.8864 107.723 90.9871 108.427 82.9301L114.325 86.8175L114.328 86.8198C115.956 87.8731 117.224 89.2588 118.136 90.9837C119.05 92.7128 119.504 94.5323 119.5 96.449V96.45V131.264Z" fill="#D5D5D5" fill-opacity="0.3" style="mix-blend-mode:multiply"/>
<path d="M72 53.5H72.0006C75.4378 53.5041 78.3905 54.7333 80.8316 57.1744C83.2725 59.6154 84.4999 62.5661 84.5 65.9994C84.5 65.9996 84.5 65.9998 84.5 66H84L72 53.5ZM72 53.5C68.5662 53.5 65.6152 54.7295 63.1741 57.1747C60.7336 59.6194 59.5042 62.5699 59.5 65.9994V66M72 53.5L59.5 66M59.5 66C59.5 69.4338 60.7295 72.3866 63.1744 74.8315M59.5 66L63.1744 74.8315M63.1744 74.8315C65.6193 77.2763 68.5701 78.504 72 78.5L63.1744 74.8315ZM29.6752 86.8175L35.5733 82.9301C36.2773 90.9871 37.3569 97.8864 38.8154 103.623C40.2908 109.426 42.5811 115.845 45.6822 122.877L24.5 131.264V96.45C24.5 94.533 24.9554 92.7131 25.87 90.9837C26.7824 89.2585 28.0482 87.8727 29.6721 86.8195L29.6752 86.8175ZM98.5 76.0498V76.05C98.5 83.8133 97.654 91.3515 95.9629 98.6653C94.2949 105.879 91.7557 112.823 88.3445 119.5H55.6514C52.243 113.017 49.7049 106.147 48.0373 98.888C46.3461 91.5262 45.5 83.9138 45.5 76.05C45.5 63.6181 47.962 51.9141 52.8843 40.9325C57.7486 30.0801 64.1249 21.8503 72.0002 16.2131C79.8792 21.8464 86.2574 30.0762 91.1217 40.9324C96.0439 51.918 98.504 63.622 98.5 76.0498ZM119.5 131.264L98.3178 122.877C101.419 115.845 103.709 109.426 105.185 103.623C106.643 97.8864 107.723 90.9871 108.427 82.9301L114.325 86.8175L114.328 86.8198C115.956 87.8731 117.224 89.2588 118.136 90.9837C119.05 92.7128 119.504 94.5323 119.5 96.449V96.45V131.264Z" fill="url(#paint0_radial_594_1204)" fill-opacity="0.25" style="mix-blend-mode:overlay"/>
<path d="M72 53.5H72.0006C75.4378 53.5041 78.3905 54.7333 80.8316 57.1744C83.2725 59.6154 84.4999 62.5661 84.5 65.9994C84.5 65.9996 84.5 65.9998 84.5 66H84L72 53.5ZM72 53.5C68.5662 53.5 65.6152 54.7295 63.1741 57.1747C60.7336 59.6194 59.5042 62.5699 59.5 65.9994V66M72 53.5L59.5 66M59.5 66C59.5 69.4338 60.7295 72.3866 63.1744 74.8315M59.5 66L63.1744 74.8315M63.1744 74.8315C65.6193 77.2763 68.5701 78.504 72 78.5L63.1744 74.8315ZM29.6752 86.8175L35.5733 82.9301C36.2773 90.9871 37.3569 97.8864 38.8154 103.623C40.2908 109.426 42.5811 115.845 45.6822 122.877L24.5 131.264V96.45C24.5 94.533 24.9554 92.7131 25.87 90.9837C26.7824 89.2585 28.0482 87.8727 29.6721 86.8195L29.6752 86.8175ZM98.5 76.0498V76.05C98.5 83.8133 97.654 91.3515 95.9629 98.6653C94.2949 105.879 91.7557 112.823 88.3445 119.5H55.6514C52.243 113.017 49.7049 106.147 48.0373 98.888C46.3461 91.5262 45.5 83.9138 45.5 76.05C45.5 63.6181 47.962 51.9141 52.8843 40.9325C57.7486 30.0801 64.1249 21.8503 72.0002 16.2131C79.8792 21.8464 86.2574 30.0762 91.1217 40.9324C96.0439 51.918 98.504 63.622 98.5 76.0498ZM119.5 131.264L98.3178 122.877C101.419 115.845 103.709 109.426 105.185 103.623C106.643 97.8864 107.723 90.9871 108.427 82.9301L114.325 86.8175L114.328 86.8198C115.956 87.8731 117.224 89.2588 118.136 90.9837C119.05 92.7128 119.504 94.5323 119.5 96.449V96.45V131.264Z" stroke="url(#paint1_linear_594_1204)"/>
<defs>
<radialGradient id="paint0_radial_594_1204" cx="0" cy="0" r="1" gradientUnits="userSpaceOnUse" gradientTransform="translate(72.0003 15.6487) rotate(90) scale(145.133 119.698)">
<stop stop-color="#FFFEFE"/>
<stop offset="1" stop-color="white" stop-opacity="0"/>
</radialGradient>
<linearGradient id="paint1_linear_594_1204" x1="72" y1="16" x2="123.507" y2="117.315" gradientUnits="userSpaceOnUse">
<stop stop-color="#5581FF"/>
<stop offset="1" stop-color="white" stop-opacity="0.19"/>
</linearGradient>
</defs>
</svg>
