<svg width="16" height="16" viewBox="0 0 16 16" fill="none" xmlns="http://www.w3.org/2000/svg">
<path d="M8.77143 0.5C9.61518 0.50225 10.0434 0.50675 10.4132 0.51725L10.5587 0.5225C10.7267 0.5285 10.8924 0.536 11.0927 0.545C11.8907 0.5825 12.4352 0.7085 12.9129 0.89375C13.4079 1.08425 13.8249 1.34225 14.2419 1.7585C14.6234 2.1333 14.9186 2.58685 15.1067 3.0875C15.2919 3.56525 15.4179 4.10975 15.4554 4.9085C15.4644 5.108 15.4719 5.27375 15.4779 5.4425L15.4824 5.588C15.4937 5.957 15.4982 6.38525 15.4997 7.229L15.5004 7.7885V8.771C15.5023 9.31805 15.4965 9.86511 15.4832 10.412L15.4787 10.5575C15.4727 10.7262 15.4652 10.892 15.4562 11.0915C15.4187 11.8903 15.2912 12.434 15.1067 12.9125C14.9186 13.4131 14.6234 13.8667 14.2419 14.2415C13.8671 14.623 13.4136 14.9181 12.9129 15.1063C12.4352 15.2915 11.8907 15.4175 11.0927 15.455L10.5587 15.4775L10.4132 15.482C10.0434 15.4925 9.61518 15.4978 8.77143 15.4993L8.21193 15.5H7.23018C6.68287 15.5019 6.13557 15.4962 5.58843 15.4827L5.44293 15.4783C5.26488 15.4715 5.08688 15.4638 4.90893 15.455C4.11093 15.4175 3.56643 15.2915 3.08793 15.1063C2.58755 14.918 2.13426 14.6229 1.75968 14.2415C1.37789 13.8668 1.08251 13.4132 0.894177 12.9125C0.708927 12.4347 0.582927 11.8903 0.545427 11.0915L0.522927 10.5575L0.519177 10.412C0.505351 9.86511 0.499101 9.31806 0.500427 8.771V7.229C0.498351 6.68195 0.503851 6.1349 0.516927 5.588L0.522177 5.4425C0.528177 5.27375 0.535677 5.108 0.544677 4.9085C0.582177 4.10975 0.708177 3.566 0.893427 3.0875C1.0822 2.58665 1.37809 2.13308 1.76043 1.7585C2.13479 1.37716 2.58782 1.08206 3.08793 0.89375C3.56643 0.7085 4.11018 0.5825 4.90893 0.545C5.10843 0.536 5.27493 0.5285 5.44293 0.5225L5.58843 0.518C6.13532 0.504675 6.68237 0.498924 7.22943 0.50075L8.77143 0.5ZM8.00043 4.25C7.00586 4.25 6.05204 4.64509 5.34878 5.34835C4.64551 6.05161 4.25043 7.00544 4.25043 8C4.25043 8.99456 4.64551 9.94839 5.34878 10.6517C6.05204 11.3549 7.00586 11.75 8.00043 11.75C8.99499 11.75 9.94882 11.3549 10.6521 10.6517C11.3553 9.94839 11.7504 8.99456 11.7504 8C11.7504 7.00544 11.3553 6.05161 10.6521 5.34835C9.94882 4.64509 8.99499 4.25 8.00043 4.25ZM8.00043 5.75C8.2959 5.74995 8.58849 5.8081 8.86149 5.92113C9.13449 6.03416 9.38256 6.19985 9.59153 6.40874C9.80049 6.61764 9.96627 6.86565 10.0794 7.13862C10.1925 7.41158 10.2508 7.70415 10.2508 7.99963C10.2509 8.2951 10.1927 8.58769 10.0797 8.86069C9.96665 9.13369 9.80095 9.38176 9.59206 9.59072C9.38316 9.79969 9.13515 9.96547 8.86219 10.0786C8.58922 10.1917 8.29665 10.25 8.00118 10.25C7.40444 10.25 6.83214 10.0129 6.41019 9.59099C5.98823 9.16903 5.75118 8.59674 5.75118 8C5.75118 7.40326 5.98823 6.83097 6.41019 6.40901C6.83214 5.98705 7.40444 5.75 8.00118 5.75M11.9387 3.125C11.69 3.125 11.4516 3.22377 11.2758 3.39959C11.0999 3.5754 11.0012 3.81386 11.0012 4.0625C11.0012 4.31114 11.0999 4.5496 11.2758 4.72541C11.4516 4.90123 11.69 5 11.9387 5C12.1873 5 12.4258 4.90123 12.6016 4.72541C12.7774 4.5496 12.8762 4.31114 12.8762 4.0625C12.8762 3.81386 12.7774 3.5754 12.6016 3.39959C12.4258 3.22377 12.1873 3.125 11.9387 3.125Z" fill="white"/>
</svg>
