
<svg width="81" height="81" viewBox="0 0 81 81" fill="none" xmlns="http://www.w3.org/2000/svg">
<g clip-path="url(#clip0_515_1342)">
<path d="M66.3333 0.5H14.6667C6.84263 0.5 0.5 7.00526 0.5 15.0299V65.9701C0.5 73.9947 6.84263 80.5 14.6667 80.5H66.3333C74.1574 80.5 80.5 73.9947 80.5 65.9701V15.0299C80.5 7.00526 74.1574 0.5 66.3333 0.5Z" fill="#330000"/>
<path d="M39.267 48.5095H26.87L24.3477 56.5458C24.3133 56.6923 24.2302 56.8219 24.1126 56.9124C23.9951 57.0028 23.8504 57.0483 23.7037 57.0411H17.4247C17.0666 57.0411 16.9414 56.8393 17.049 56.4357L27.7823 24.731C27.8897 24.4008 27.9971 24.0247 28.1044 23.6026C28.2448 22.8683 28.3166 22.1218 28.319 21.3735C28.3118 21.3211 28.3165 21.2678 28.3328 21.2176C28.3491 21.1675 28.3765 21.1219 28.413 21.0845C28.4494 21.0471 28.4939 21.0189 28.5428 21.0022C28.5917 20.9855 28.6437 20.9807 28.6947 20.9881H37.2276C37.4776 20.9881 37.6207 21.0799 37.657 21.2634L49.8394 56.4907C49.9467 56.8579 49.8393 57.0414 49.5173 57.0411H42.5406C42.4208 57.0548 42.3002 57.0232 42.2015 56.9522C42.1027 56.8813 42.0325 56.776 42.004 56.6559L39.267 48.5095ZM28.802 41.5741H37.2813C37.0666 40.8405 36.8162 40.0149 36.53 39.0972C36.2432 38.1804 35.9391 37.1988 35.6177 36.1524C35.2956 35.1066 34.9736 34.0608 34.6516 33.0149C34.3297 31.9692 34.0345 30.9601 33.7662 29.9876C33.4978 29.0158 33.2563 28.1259 33.0417 27.3181H32.988C32.6859 28.8046 32.3098 30.2744 31.8611 31.7215C31.3596 33.3728 30.8497 35.0607 30.3314 36.7854C29.8124 38.5107 29.3026 40.1069 28.802 41.5741H28.802Z" fill="#FF9A00"/>
<path d="M57.0843 26.8228C56.5369 26.8453 55.9911 26.7491 55.4825 26.5405C54.9738 26.3318 54.5139 26.0154 54.1326 25.6119C53.7525 25.1909 53.4572 24.6969 53.2638 24.1585C53.0703 23.6201 52.9826 23.0478 53.0055 22.4744C52.986 21.9068 53.0835 21.3413 53.2916 20.8149C53.4996 20.2885 53.8136 19.813 54.213 19.4195C54.6086 19.0301 55.0755 18.725 55.5868 18.5219C56.098 18.3188 56.6435 18.2217 57.1916 18.2361C58.4796 18.2361 59.4904 18.6306 60.2238 19.4195C60.594 19.8295 60.8817 20.3104 61.0705 20.8346C61.2593 21.3588 61.3454 21.916 61.3239 22.4744C61.3463 23.05 61.2558 23.6243 61.0575 24.1633C60.8593 24.7022 60.5575 25.1949 60.1701 25.6119C59.7651 26.0213 59.2819 26.3402 58.7508 26.5487C58.2197 26.7571 57.6523 26.8504 57.0843 26.8228ZM53.3812 56.4908V30.1803C53.3812 29.8501 53.5238 29.6849 53.8105 29.6849H60.4116C60.6976 29.6849 60.8407 29.8501 60.841 30.1803V56.4908C60.841 56.858 60.6979 57.0415 60.4116 57.0412H53.8643C53.5423 57.0412 53.3813 56.8577 53.3812 56.4908Z" fill="#FF9A00"/>
</g>
<defs>
<clipPath id="clip0_515_1342">
<rect width="80" height="80" fill="white" transform="translate(0.5 0.5)"/>
</clipPath>
</defs>
</svg>
