<svg width="16" height="16" viewBox="0 0 16 16" fill="none" xmlns="http://www.w3.org/2000/svg">
<path fill-rule="evenodd" clip-rule="evenodd" d="M15.5655 15.551H12.4303V10.6459C12.4303 9.47549 12.4107 7.97132 10.8016 7.97132C9.17057 7.97132 8.92138 9.24593 8.92138 10.5613V15.551H5.78922V5.46287H8.79452V6.84244H8.83832C9.25589 6.04959 10.2791 5.21293 11.8044 5.21293C14.9788 5.21293 15.5648 7.30155 15.5648 10.0184L15.5655 15.551ZM2.25459 4.08557C2.01565 4.08577 1.77902 4.03885 1.55824 3.94751C1.33745 3.85616 1.13684 3.72218 0.967889 3.55323C0.798936 3.38427 0.664954 3.18367 0.573609 2.96288C0.482264 2.74209 0.435349 2.50546 0.435548 2.26653C0.435548 1.90697 0.54215 1.55548 0.741879 1.2565C0.941608 0.957517 1.2255 0.724462 1.55766 0.586796C1.88982 0.44913 2.25534 0.413034 2.60801 0.483071C2.96068 0.553107 3.28467 0.726132 3.53902 0.980273C3.79337 1.23441 3.96667 1.55826 4.037 1.91087C4.10733 2.26349 4.07153 2.62904 3.93414 2.96131C3.79675 3.29358 3.56393 3.57767 3.26512 3.77764C2.9663 3.97762 2.6149 4.08451 2.25534 4.08481L2.25459 4.08557ZM3.82293 15.551H0.684731V5.46287H3.82293V15.551Z" fill="#F9F9F9"/>
</svg>
