<svg width="24" height="24" viewBox="0 0 24 24" fill="none" xmlns="http://www.w3.org/2000/svg">
<path d="M3.2957 20.6018L9.6597 14.2378M17.6737 11.4078L15.7687 17.1228C15.7383 17.2144 15.6862 17.2974 15.617 17.3646C15.5477 17.4318 15.4632 17.4813 15.3707 17.5088L3.6927 20.9798C3.58749 21.0111 3.47572 21.0129 3.36957 20.985C3.26341 20.9572 3.16693 20.9007 3.09062 20.8218C3.01432 20.7429 2.96111 20.6446 2.93679 20.5376C2.91247 20.4306 2.91797 20.319 2.9527 20.2148L6.7447 8.84084C6.77187 8.75917 6.8163 8.68431 6.87497 8.62133C6.93363 8.55835 7.00516 8.50873 7.0847 8.47584L12.4717 6.25784C12.5812 6.21261 12.7017 6.20082 12.8179 6.22395C12.9341 6.24709 13.0409 6.30411 13.1247 6.38784L17.5287 10.7938C17.6075 10.8726 17.6628 10.9718 17.6884 11.0802C17.714 11.1887 17.7089 11.3021 17.6737 11.4078Z" stroke="#9B9B9B" stroke-width="1.5" stroke-linecap="round" stroke-linejoin="round"/>
<path d="M17.7923 11.056L20.6203 8.22699C20.9953 7.85194 21.2059 7.34332 21.2059 6.81299C21.2059 6.28266 20.9953 5.77405 20.6203 5.39899L18.5003 3.27699C18.3146 3.09119 18.0941 2.9438 17.8514 2.84324C17.6087 2.74268 17.3485 2.69092 17.0858 2.69092C16.8231 2.69092 16.563 2.74268 16.3203 2.84324C16.0776 2.9438 15.8571 3.09119 15.6713 3.27699L12.8433 6.10599M11.7813 12.116C11.642 11.9767 11.4766 11.8663 11.2946 11.7909C11.1126 11.7156 10.9175 11.6768 10.7205 11.6769C10.5235 11.6769 10.3284 11.7158 10.1464 11.7912C9.96444 11.8666 9.7991 11.9772 9.65983 12.1165C9.52056 12.2558 9.4101 12.4212 9.33476 12.6032C9.25941 12.7853 9.22066 12.9803 9.2207 13.1773C9.22075 13.3743 9.2596 13.5694 9.33503 13.7514C9.41046 13.9334 9.521 14.0987 9.66033 14.238C9.94172 14.5193 10.3233 14.6772 10.7212 14.6771C11.119 14.677 11.5006 14.5189 11.7818 14.2375C12.0631 13.9561 12.2211 13.5745 12.221 13.1766C12.2209 12.7788 12.0627 12.3973 11.7813 12.116Z" stroke="#9B9B9B" stroke-width="1.5" stroke-linecap="round" stroke-linejoin="round"/>
</svg>
