<svg width="24" height="24" viewBox="0 0 24 24" fill="none" xmlns="http://www.w3.org/2000/svg">
<path d="M16.7303 2.06494H7.27028C6.6429 2.10263 6.05573 2.38633 5.63632 2.85443C5.2169 3.32253 4.99912 3.93721 5.03028 4.56494V19.4349C4.99912 20.0627 5.2169 20.6774 5.63632 21.1455C6.05573 21.6136 6.6429 21.8973 7.27028 21.9349H16.7303C17.3577 21.8973 17.9448 21.6136 18.3642 21.1455C18.7837 20.6774 19.0014 20.0627 18.9703 19.4349V4.56494C19.0014 3.93721 18.7837 3.32253 18.3642 2.85443C17.9448 2.38633 17.3577 2.10263 16.7303 2.06494ZM17.9703 19.4349C18.0011 19.7975 17.8884 20.1577 17.6566 20.4382C17.4248 20.7186 17.0922 20.897 16.7303 20.9349H7.27028C6.90839 20.897 6.57581 20.7186 6.34397 20.4382C6.11212 20.1577 5.9995 19.7975 6.03028 19.4349V4.56494C5.9995 4.20237 6.11212 3.84218 6.34397 3.56172C6.57581 3.28126 6.90839 3.1029 7.27028 3.06494H8.80028V3.57494C8.80028 3.84016 8.90564 4.09451 9.09317 4.28205C9.28071 4.46958 9.53506 4.57494 9.80028 4.57494H14.2003C14.4655 4.57494 14.7199 4.46958 14.9074 4.28205C15.0949 4.09451 15.2003 3.84016 15.2003 3.57494V3.06494H16.7303C17.0922 3.1029 17.4248 3.28126 17.6566 3.56172C17.8884 3.84218 18.0011 4.20237 17.9703 4.56494V19.4349Z" fill="#9B9B9B"/>
<path d="M10 18.9341H14C14.1326 18.9341 14.2598 18.8814 14.3536 18.7876C14.4473 18.6939 14.5 18.5667 14.5 18.4341C14.5 18.3015 14.4473 18.1743 14.3536 18.0805C14.2598 17.9868 14.1326 17.9341 14 17.9341H10C9.86739 17.9341 9.74021 17.9868 9.64645 18.0805C9.55268 18.1743 9.5 18.3015 9.5 18.4341C9.5 18.5667 9.55268 18.6939 9.64645 18.7876C9.74021 18.8814 9.86739 18.9341 10 18.9341Z" fill="#9B9B9B"/>
</svg>
