<svg width="24" height="24" viewBox="0 0 24 24" fill="none" xmlns="http://www.w3.org/2000/svg">
<path d="M13.5604 2.97624C12.559 2.57563 11.4418 2.57563 10.4404 2.97624L3.53199 5.74224C3.19828 5.8757 2.91217 6.10601 2.71049 6.40349C2.50881 6.70098 2.40081 7.05204 2.40039 7.41144V16.5866C2.40033 16.9465 2.50811 17.298 2.70982 17.596C2.91152 17.894 3.1979 18.1246 3.53199 18.2582L10.4404 21.0218C11.4418 21.4225 12.559 21.4225 13.5604 21.0218L20.4688 18.2582C20.8029 18.1246 21.0893 17.894 21.291 17.596C21.4927 17.298 21.6005 16.9465 21.6004 16.5866V7.41144C21.6002 7.05183 21.4923 6.70052 21.2906 6.40279C21.0889 6.10507 20.8027 5.87458 20.4688 5.74104L13.5604 2.97624ZM10.8868 4.09224C11.602 3.80613 12.3999 3.80613 13.1152 4.09224L19.3852 6.60024L16.6504 7.69224L9.26559 4.74024L10.8868 4.09224ZM7.65039 5.38464L15.0352 8.33784L12.0004 9.55344L4.61559 6.59904L7.65039 5.38464ZM12.6004 10.6046L20.4004 7.48464V16.5854C20.4006 16.7055 20.3648 16.8228 20.2976 16.9223C20.2305 17.0218 20.135 17.0988 20.0236 17.1434L13.1152 19.907C12.9472 19.9734 12.7756 20.0246 12.6004 20.0606V10.6046ZM11.4004 10.6046V20.0606C11.225 20.0249 11.0531 19.9735 10.8868 19.907L3.97719 17.1434C3.86597 17.0989 3.77064 17.022 3.70348 16.9228C3.63632 16.8235 3.60042 16.7065 3.60039 16.5866V7.48584L11.4004 10.6046Z" fill="#9B9B9B"/>
</svg>
