<svg width="81" height="81" viewBox="0 0 81 81" fill="none" xmlns="http://www.w3.org/2000/svg">
<g clip-path="url(#clip0_515_1317)">
<path d="M14.6667 0.5H66.3333C74.1667 0.5 80.5 6.99573 80.5 15.0299V65.9701C80.5 74.0043 74.1667 80.5 66.3333 80.5H14.6667C6.83333 80.5 0.5 74.0043 0.5 65.9701V15.0299C0.5 6.99573 6.83333 0.5 14.6667 0.5Z" fill="#001E36"/>
<path d="M24.9004 52.4316V27.5427C24.9004 27.3718 24.9671 27.2692 25.1337 27.2692C25.5337 27.2692 25.9004 27.2692 26.4671 27.235C27.0337 27.235 27.6337 27.2009 28.2671 27.2009C28.9004 27.2009 29.6004 27.1667 30.3337 27.1667C31.0671 27.1667 31.7671 27.1325 32.4671 27.1325C34.1337 27.0983 35.7671 27.3376 37.3337 27.8846C38.5337 28.2949 39.6004 28.9786 40.5004 29.8675C41.2671 30.6539 41.8671 31.5769 42.2337 32.6026C42.6004 33.594 42.7671 34.6539 42.7671 35.7479C42.7671 37.8333 42.3004 39.5427 41.3671 40.9103C40.4337 42.2778 39.1004 43.3034 37.5671 43.8504C35.8671 44.4316 34.0671 44.7393 32.2337 44.6709C31.6671 44.6709 31.2671 44.6709 31.0671 44.6368C30.8337 44.6368 30.5004 44.6026 30.0337 44.6026V52.3633C30.0671 52.5342 29.9337 52.7051 29.7671 52.7051C29.7337 52.7051 29.7004 52.7051 29.6671 52.7051H25.1671C25.0004 52.7735 24.9004 52.6709 24.9004 52.4316ZM30.0337 31.953V40.0898C30.3671 40.1239 30.6671 40.1239 30.9337 40.1239H32.2004C33.1337 40.1239 34.0337 39.9872 34.9337 39.6795C35.7004 39.4402 36.3671 38.9957 36.8671 38.3803C37.3671 37.7992 37.6004 36.9444 37.6004 35.8846C37.6337 35.1325 37.4337 34.3803 37.0337 33.7308C36.6337 33.1154 36.0671 32.6368 35.3671 32.3633C34.4671 32.0214 33.5337 31.8504 32.6004 31.8846C32.0004 31.8846 31.4671 31.8846 31.0004 31.9188C30.5337 31.8846 30.2337 31.9188 30.0337 31.953Z" fill="#31A8FF"/>
<path d="M57.4676 38.5856C56.7676 38.2095 56.0009 37.936 55.2009 37.7651C54.3342 37.5599 53.4342 37.4574 52.5676 37.4574C52.1009 37.4574 51.6009 37.4916 51.1342 37.6283C50.8342 37.6967 50.5676 37.8676 50.4009 38.1069C50.2676 38.3121 50.2009 38.5514 50.2009 38.7565C50.2009 38.9958 50.3009 39.201 50.4342 39.3719C50.6676 39.6454 50.9342 39.8505 51.2342 40.0215C51.7676 40.3292 52.3342 40.6027 52.9009 40.8078C54.1676 41.2522 55.4009 41.8334 56.5342 42.5856C57.3009 43.0984 57.9342 43.7822 58.4009 44.6027C58.7676 45.389 58.9676 46.2437 58.9676 47.0984C59.0009 48.2266 58.6676 49.3548 58.0676 50.3121C57.4009 51.2693 56.5009 52.0215 55.4342 52.4659C54.0676 53.0129 52.6342 53.2864 51.1676 53.2522C50.1009 53.2522 49.0009 53.1497 47.9676 52.9445C47.1342 52.7736 46.3342 52.5343 45.5676 52.1582C45.4009 52.0557 45.3009 51.8847 45.3009 51.6796V47.4745C45.3009 47.4061 45.3342 47.3035 45.4009 47.2693C45.4676 47.2351 45.5676 47.2351 45.6009 47.3035C46.5009 47.8505 47.5009 48.2608 48.5342 48.5001C49.4342 48.7394 50.3676 48.842 51.3009 48.8762C51.9676 48.9104 52.6342 48.8078 53.2676 48.5343C53.6676 48.3633 53.9009 47.9531 53.9009 47.5086C53.8676 47.0984 53.6676 46.7565 53.3342 46.5172C52.6009 46.0386 51.8342 45.6625 51.0009 45.389C49.8009 44.9787 48.6676 44.3633 47.6342 43.6454C46.9009 43.0984 46.2676 42.4146 45.8342 41.5941C45.4676 40.842 45.2676 39.9873 45.2676 39.1326C45.2676 38.1069 45.5342 37.0813 46.0676 36.1924C46.6676 35.2351 47.5342 34.4488 48.5342 33.9702C49.8342 33.3548 51.2676 33.0471 52.7009 33.1155C53.6676 33.1155 54.6676 33.1839 55.6342 33.3206C56.3342 33.4232 57.0342 33.5941 57.6676 33.9018C57.7676 33.936 57.8676 34.0044 57.9009 34.1069C57.9342 34.2095 57.9342 34.3121 57.9342 34.4146V38.3463C57.9342 38.4488 57.9009 38.5172 57.8342 38.5856C57.7009 38.6539 57.5676 38.6539 57.4676 38.5856Z" fill="#31A8FF"/>
<g opacity="0.6">
<path opacity="0.6" d="M40.5005 73.594C39.2005 73.594 37.9672 73.0812 37.0672 72.1239L9.66719 44.0214C7.76719 42.0726 7.76719 38.9273 9.66719 36.9786L37.0672 8.87606C38.9672 6.92734 42.0339 6.92734 43.9339 8.87606L71.3339 36.9786C73.2339 38.9273 73.2339 42.0726 71.3339 44.0214L43.9339 72.1239C43.0339 73.047 41.8005 73.594 40.5005 73.594ZM38.0005 71.1666C39.3672 72.5684 41.6005 72.5684 42.9672 71.1666L70.3672 43.0641C71.7339 41.6624 71.7339 39.3718 70.3672 37.9701L42.9672 9.86751C41.6005 8.4658 39.3672 8.4658 38.0005 9.86751L10.6005 37.9701C9.23385 39.3718 9.23385 41.6624 10.6005 43.0641L38.0005 71.1666Z" fill="#31A8FF"/>
</g>
</g>
<defs>
<clipPath id="clip0_515_1317">
<rect width="80" height="80" fill="white" transform="translate(0.5 0.5)"/>
</clipPath>
</defs>
</svg>
