<svg width="52" height="52" viewBox="0 0 52 52" fill="none" xmlns="http://www.w3.org/2000/svg">
<path d="M26.0007 4.33325C14.0537 4.33325 4.33398 14.0529 4.33398 25.9999V34.9764C4.33398 37.1951 6.27748 38.9999 8.66732 38.9999H10.834C11.4086 38.9999 11.9597 38.7716 12.366 38.3653C12.7724 37.959 13.0007 37.4079 13.0007 36.8333V25.6901C13.0007 25.1155 12.7724 24.5644 12.366 24.158C11.9597 23.7517 11.4086 23.5234 10.834 23.5234H8.86665C10.0713 15.1384 17.2863 8.66659 26.0007 8.66659C34.715 8.66659 41.93 15.1384 43.1347 23.5234H41.1673C40.5927 23.5234 40.0416 23.7517 39.6353 24.158C39.2289 24.5644 39.0007 25.1155 39.0007 25.6901V38.9999C39.0007 41.3898 37.0572 43.3333 34.6673 43.3333H30.334V41.1666H21.6673V47.6666H34.6673C39.447 47.6666 43.334 43.7796 43.334 38.9999C45.7238 38.9999 47.6673 37.1951 47.6673 34.9764V25.9999C47.6673 14.0529 37.9477 4.33325 26.0007 4.33325Z" fill="white"/>
</svg>
