<svg width="16" height="16" viewBox="0 0 16 16" fill="none" xmlns="http://www.w3.org/2000/svg">
<path fill-rule="evenodd" clip-rule="evenodd" d="M9.33464 1.33398C9.68826 1.33398 10.0274 1.47446 10.2774 1.72451C10.5275 1.97456 10.668 2.3137 10.668 2.66732C10.6683 3.12806 10.8275 3.57459 11.1187 3.93163C11.4099 4.28867 11.8154 4.53437 12.2666 4.62732C12.6132 4.69769 12.9176 4.90284 13.1129 5.19765C13.3082 5.49246 13.3783 5.85277 13.308 6.19932C13.2376 6.54587 13.0324 6.85027 12.7376 7.04556C12.4428 7.24084 12.0825 7.31102 11.736 7.24065C11.3668 7.16555 11.0082 7.04578 10.668 6.88398V10.6673C10.6679 11.4155 10.4581 12.1486 10.0622 12.7835C9.6664 13.4183 9.10045 13.9295 8.42867 14.2588C7.75689 14.5881 7.00622 14.7224 6.26192 14.6465C5.51763 14.5705 4.80956 14.2874 4.21814 13.8292C3.62672 13.3709 3.17566 12.756 2.9162 12.0543C2.65675 11.3526 2.59929 10.5922 2.75037 9.85942C2.90145 9.12667 3.255 8.45098 3.77085 7.90911C4.28671 7.36724 4.94421 6.9809 5.66864 6.79398C6.00891 6.71192 6.36781 6.76696 6.66786 6.94722C6.96791 7.12747 7.18504 7.41849 7.27239 7.75745C7.35973 8.09641 7.31028 8.45612 7.13471 8.75894C6.95914 9.06175 6.67153 9.28338 6.33397 9.37598C6.02142 9.45892 5.74961 9.6525 5.56905 9.92076C5.38849 10.189 5.31146 10.5137 5.35228 10.8345C5.3931 11.1553 5.54899 11.4503 5.79098 11.6648C6.03298 11.8793 6.34461 11.9986 6.66797 12.0007C7.02159 12.0007 7.36073 11.8602 7.61078 11.6101C7.86083 11.3601 8.0013 11.0209 8.0013 10.6673V2.66732C8.0013 2.3137 8.14178 1.97456 8.39183 1.72451C8.64188 1.47446 8.98101 1.33398 9.33464 1.33398Z" fill="white"/>
</svg>
