<svg width="82" height="82" viewBox="0 0 82 82" fill="none" xmlns="http://www.w3.org/2000/svg">
<path d="M51.1699 32.2515H52.9316L53.6123 32.4517L54.2529 32.7319L54.7734 33.0923L55.2939 33.5327L55.6943 34.0132L56.0547 34.6138L56.2949 35.2144L56.4551 35.895L56.4951 36.2153V37.0962L56.375 37.7769V37.9771L56.7354 38.4575L57.0156 39.0581L57.2158 39.7388L57.2959 40.2593V41.6606L57.2158 42.2212L57.0557 42.8218L56.7354 43.5024L56.335 44.0229L55.8945 44.4634L55.334 44.8237L54.7334 45.064L53.9727 45.2241L53.4121 45.2642H50.7695L50.7295 45.2241V40.8999L50.4893 40.8599L49.8086 40.5396L49.3682 40.2593L48.6875 39.5786L48.4072 39.2583L48.0068 38.5776L47.7666 37.9771L47.6064 37.3364L47.5664 37.0562V36.2554L47.6865 35.5747L47.9668 34.814L48.3271 34.1733L48.7275 33.6528L49.0879 33.2925L49.4883 32.9722L50.0488 32.6519L50.7295 32.3716L51.1699 32.2515ZM55.374 39.6587L54.8936 40.0991L54.293 40.4995L53.6924 40.7798L53.0117 40.98L52.5312 41.1001V43.9028H53.5723L54.0527 43.8228L54.4131 43.6626L54.6533 43.5024L54.9736 43.2222L55.2539 42.7817L55.4141 42.3013L55.4941 41.7808V40.1392L55.4541 39.6987L55.374 39.6587Z" fill="#00D4EA"/>
<path d="M50.7695 36.7358H53.9326L54.5732 36.856L55.2139 37.0962L55.6543 37.3364L56.2949 37.8169L56.5352 38.1772L56.8154 38.6177L57.0557 39.1782L57.2559 39.939L57.2959 40.2593V41.6606L57.2158 42.2212L57.0557 42.8218L56.7354 43.5024L56.335 44.0229L55.8945 44.4634L55.334 44.8237L54.7334 45.064L53.9727 45.2241L53.4121 45.2642H50.7695L50.7295 45.2241L50.6895 40.8599L50.7295 37.4165L50.7695 36.7358ZM55.374 39.6587L54.8936 40.0991L54.293 40.4995L53.6924 40.7798L53.0117 40.98L52.5312 41.1001V43.9028H53.5723L54.0527 43.8228L54.4131 43.6626L54.6533 43.5024L54.9736 43.2222L55.2539 42.7817L55.4141 42.3013L55.4941 41.7808V40.1392L55.4541 39.6987L55.374 39.6587Z" fill="#FEFEFE"/>
<path d="M74.2324 36.6958H76.0342L76.6348 37.7368L77.0352 38.3774L77.5557 39.2583L79.1172 41.8608L79.3975 42.3013L79.4375 42.2612V36.6958H81.1592L81.1992 36.7358V45.2241L80.5986 45.2642H79.4775L79.2373 44.9438L78.7568 44.1431L78.0762 43.022L77.6758 42.3413L76.9951 41.2202L76.1943 39.8589L76.0342 39.6187L75.9941 45.2241L75.4736 45.2642H74.2725L74.2324 45.2241V36.6958Z" fill="#FEFEFE"/>
<path d="M0.800781 36.6958H3.72363L4.4043 36.7759L5.125 37.0161L5.72559 37.3364L6.32617 37.8569L6.64648 38.2573L7.00684 38.8979L7.24707 39.6187L7.32715 40.0591L7.36719 40.6997V41.2603L7.32715 41.9009L7.16699 42.6216L6.92676 43.2222L6.56641 43.8228L6.12598 44.3032L5.60547 44.7036L5.00488 44.9839L4.24414 45.1841L3.44336 45.2642H0.800781V36.6958ZM2.5625 38.0571L2.52246 43.9028H3.64355L4.12402 43.8228L4.60449 43.5825L5.00488 43.2222L5.24512 42.8618L5.40527 42.4214L5.52539 41.9409L5.56543 41.6606V40.2993L5.44531 39.6187L5.24512 39.0981L5.00488 38.7378L4.84473 38.5376L4.4043 38.2573L3.92383 38.0972L3.68359 38.0571H2.5625Z" fill="#FEFEFE"/>
<path d="M36.8359 39.0981H37.2764L37.917 39.2183L38.4775 39.4585L38.918 39.7788L38.998 39.8589V39.2183H40.3994L40.4395 39.2583V45.104H39.0381L38.998 45.064V44.4634L38.6377 44.7837L38.0771 45.064L37.5166 45.2241L37.1963 45.2642H36.7959L36.1553 45.144L35.5547 44.9038L35.1543 44.6235L34.7539 44.2632L34.3936 43.7427L34.1533 43.1821L34.0332 42.6616V41.6606L34.1934 41.0601L34.5137 40.4194L34.7939 40.0591L35.0742 39.7788L35.6348 39.4185L36.2754 39.1782L36.8359 39.0981Z" fill="#FE7F00"/>
<path d="M68.8672 36.5757H69.9883L70.6689 36.6958L71.1895 36.896L71.6299 37.1362L72.0303 37.4966L72.3506 37.937L72.6709 38.6177L72.791 39.1382V39.3784L71.1494 39.4185L71.0293 39.1382L70.8691 38.7378L70.6289 38.3774L70.3887 38.1772L70.0283 38.0171L69.7881 37.9771H69.1475L68.707 38.0972L68.3467 38.3774L68.1064 38.6577L67.8262 39.2183L67.7061 39.6587L67.626 40.3794V41.5405L67.7061 42.2612L67.8662 42.8218L68.0664 43.2222L68.5469 43.7026L68.9873 43.9028L69.3877 43.9829H69.9482L70.5088 43.8628L70.9092 43.6626L70.9893 43.5825L71.0293 42.061H69.4678L69.4277 42.021V40.7798H72.791V44.2231L72.5107 44.5034L71.9502 44.8638L71.3496 45.104L70.5889 45.3042L69.9482 45.3843H69.0674L68.4268 45.2642L67.7861 45.0239L67.3057 44.7437L66.9053 44.3833L66.5449 43.9829L66.1045 43.1421L65.9043 42.5015L65.8242 41.981V40.019L65.9443 39.2583L66.2246 38.4976L66.5049 38.0171L66.8252 37.6167L67.0254 37.3765L67.5459 37.0161L68.1465 36.7358L68.5869 36.6157L68.8672 36.5757Z" fill="#FEFEFE"/>
<path d="M61.2197 36.5757H62.0605L62.6611 36.6558L63.2217 36.856L63.8223 37.1763L64.3027 37.6567L64.623 38.1772L64.7832 38.6577L64.8232 38.8579V39.1782L64.623 39.2183H63.1016L63.0215 38.938L62.8613 38.5376L62.6211 38.2173L62.2207 38.0171L62.0605 37.9771H61.1797L60.7793 38.1372L60.459 38.4175L60.2988 38.8179V39.0981L60.4189 39.4185L60.7393 39.6987L61.5 40.0591L62.6611 40.4595L63.3018 40.7397L63.8623 41.1001L64.2627 41.4604L64.543 41.8608L64.7432 42.3013L64.8232 42.6216V43.3823L64.6631 43.9028L64.4629 44.2632L63.9824 44.7837L63.3418 45.104L62.6611 45.3042L62.0605 45.3843H61.2998L60.7393 45.3042L60.0586 45.104L59.418 44.7837L59.0576 44.5034L58.7773 44.2231L58.4971 43.7827L58.2969 43.3022L58.2168 42.8618V42.5815H59.9785L60.1387 43.2222L60.3789 43.5825L60.6992 43.8228L61.0596 43.9429L61.2598 43.9829H62.1006L62.501 43.8628L62.7412 43.7026L62.9014 43.5024L63.0215 43.1421V42.8218L62.9014 42.4614L62.7012 42.2612L62.3008 42.021L61.8604 41.8208L60.6992 41.4204L59.9785 41.1001L59.5381 40.8198L59.0576 40.4595L58.6973 39.8989L58.5371 39.4585L58.4971 39.2983V38.6577L58.6572 38.1372L58.8174 37.8169L59.1777 37.3765L59.6982 37.0161L60.2188 36.7759L60.8594 36.6157L61.2197 36.5757Z" fill="#FEFEFE"/>
<path d="M15.7354 36.2153H17.377L17.417 36.2554L17.457 39.3784L17.8975 39.0181L18.3779 38.8179L18.6182 38.7778H19.2588L19.7393 38.8579L20.1396 39.0181L20.5 39.2983L20.7803 39.5786L21.0605 40.019L21.2607 40.4995L21.3809 40.98L21.4609 41.9409L21.4209 42.8618L21.3008 43.5425L21.1406 43.9829L20.9004 44.4233L20.46 44.9038L20.0996 45.144L19.499 45.3442L19.2588 45.3843H18.6982L18.1777 45.2642L17.8574 45.104L17.377 44.6636H17.3369L17.2568 45.2241L17.1367 45.2642H15.7354L15.6953 45.2241V36.2554L15.7354 36.2153ZM18.2979 40.0991L17.9375 40.2192L17.6172 40.4595L17.457 40.6597L17.417 40.7798V43.3823L17.5771 43.6626L17.8574 43.9028L18.1377 44.0229L18.3779 44.063H18.7383L19.1387 43.9429L19.4189 43.7026L19.6191 43.3022L19.7393 42.6616V41.5405L19.6592 41.02L19.499 40.6196L19.2188 40.2993L18.9385 40.1392L18.7783 40.0991H18.2979Z" fill="#FEFEFE"/>
<path d="M25.2246 39.0981H25.665L26.2256 39.1782L26.8262 39.4185L27.3467 39.7388L27.707 40.0591L28.0674 40.5396L28.3076 41.02L28.4678 41.6606L28.5078 42.2212L28.4277 42.9019L28.2676 43.4224L27.9473 43.9829L27.5869 44.3833L27.3066 44.6636L26.7461 44.9839L26.1455 45.1841L25.665 45.2642H25.1846L24.5439 45.144L24.0234 44.9438L23.583 44.6636L23.1826 44.3032L22.8623 43.9028L22.542 43.3022L22.3818 42.7817L22.3418 42.5815V41.7407L22.502 41.1401L22.7822 40.5796L23.1426 40.0991L23.5029 39.7388L24.1035 39.3784L24.6641 39.1782L25.2246 39.0981Z" fill="#CA42DD"/>
<path d="M41.5596 36.2153H43.2412L43.2812 39.5386L43.7217 39.1382L44.1221 38.8979L44.3623 38.8179L44.6426 38.7778H45.2432L45.7637 38.8579L46.2441 39.0981L46.5645 39.3784L46.8848 39.939L47.0449 40.5796V45.2241L46.7246 45.2642H45.4033L45.3633 45.2241L45.3232 40.8999L45.2031 40.5396L45.043 40.3394L44.7627 40.1792L44.5625 40.1392H44.082L43.6416 40.2993L43.3213 40.5796L43.2812 40.6997L43.2412 45.2241L43.1611 45.2642H41.5996L41.5195 45.0239V36.5356L41.5596 36.2153Z" fill="#FEFEFE"/>
<path d="M11.251 39.0981H11.7314L12.292 39.1782L12.8525 39.3784L13.4131 39.6987L13.9336 40.2192L14.2539 40.7397L14.4541 41.3403L14.5342 41.7407V42.6616L14.4941 42.7017H9.72949L9.92969 43.1421L10.0898 43.3823L10.29 43.6226L10.7305 43.9028L11.1309 44.0229H11.8916L12.292 43.9028L12.6924 43.6626L13.0127 43.3022L13.1729 43.062L13.4131 43.1021L13.7334 43.3022L14.2539 43.6226V43.7827L13.9736 44.1831L13.6533 44.5435L13.2529 44.8237L12.8525 45.0239L12.332 45.1841L11.8115 45.2642H11.251L10.5703 45.144L9.96973 44.9038L9.5293 44.6235L9.16895 44.3032L8.80859 43.7827L8.56836 43.2622L8.4082 42.6216V41.7808L8.56836 41.1401L8.88867 40.4995L9.16895 40.1392L9.56934 39.7388L10.1699 39.3784L10.5703 39.2183L11.251 39.0981Z" fill="#00F5FE"/>
<path d="M32.5117 38.7778H33.1123L33.3125 38.8179V40.3794L33.2725 40.4194H32.3115L31.9111 40.5396L31.5508 40.8198L31.4307 41.0601L31.3906 45.2241L30.8701 45.2642H29.709V38.8979H31.3105L31.3506 39.4985L31.3906 39.5786L31.9111 39.0181L32.2715 38.8179L32.5117 38.7778Z" fill="#FEFEFE"/>
<path d="M26.1455 39.2183L26.4658 39.2583L27.1064 39.5786L27.4268 39.8188L27.707 40.0591L28.0674 40.5396L28.3076 41.02L28.4678 41.6606L28.5078 42.2212L28.4277 42.9019L28.2676 43.4224L27.9473 43.9829L27.5869 44.3833L27.3066 44.6636L26.7461 44.9839L26.1455 45.1841L25.9453 45.2241H25.625L25.5449 45.104L25.5049 44.9038L25.4648 43.9829L25.5449 43.1021L25.665 41.4204V40.4194L25.8252 39.8589L26.0254 39.5386L26.1055 39.2583L26.1455 39.2183Z" fill="#9B45EA"/>
<path d="M9.40918 39.8989H9.5293L9.72949 40.2993L10.0098 41.0601L10.29 41.6606L10.6504 42.3813V42.6216L10.6104 42.6616L10.21 42.7017H9.72949L9.92969 43.1421L10.0898 43.3823L10.29 43.6226L10.7305 43.9028L11.1309 44.0229H11.8916L12.292 43.9028L12.6924 43.6626L13.0127 43.3022L13.1729 43.062L13.4131 43.1021L13.7334 43.3022L14.2539 43.6226V43.7827L13.9736 44.1831L13.6533 44.5435L13.2529 44.8237L12.8525 45.0239L12.332 45.1841L11.8115 45.2642H11.251L10.5703 45.144L9.96973 44.9038L9.5293 44.6235L9.16895 44.3032L8.80859 43.7827L8.56836 43.2622L8.4082 42.6216V41.7808L8.56836 41.1401L8.88867 40.4995L9.16895 40.1392L9.40918 39.8989Z" fill="#077499"/>
<path d="M11.251 39.0981H11.7314L12.292 39.1782L12.3721 39.2583L12.252 39.3784L11.8115 39.4985V39.8989L11.7715 40.0591V40.4995L11.9316 41.1401L12.332 42.1011L12.3721 42.5415L12.292 42.6616H10.6104V42.3813L10.1699 41.5005L9.84961 40.7397L9.64941 40.1792L9.5293 40.019V39.8989L9.44922 39.8589L9.80957 39.5786L10.4502 39.2583L10.9307 39.1382L11.251 39.0981Z" fill="#00D4EA"/>
<path d="M53.0117 38.0171H53.5723L54.2129 38.1772L54.6133 38.4175L54.9736 38.7378L55.2939 39.2583L55.4141 39.5386L55.374 39.6987L54.8936 40.1392L54.293 40.5396L53.6924 40.8198L53.0117 41.02L52.5713 41.1001L52.5312 41.0601V38.0972L52.5713 38.0571L53.0117 38.0171Z" fill="#00D4EA"/>
<path d="M27.7861 40.2993L27.9863 40.4194L28.2266 40.8198L28.4268 41.4204L28.5068 42.2212L28.4268 42.9019L28.2666 43.4224L27.9463 43.9829L27.5859 44.3833L27.3057 44.6636L27.0654 44.8237H26.9453V44.7437H27.0254L27.0654 44.5435L27.1455 44.4233L27.1855 43.9429L27.2656 43.3022L27.3057 43.2222L27.3857 42.061L27.4258 42.021L27.4658 41.02L27.5459 40.4995L27.7061 40.3394L27.7861 40.2993Z" fill="#7843F4"/>
<path d="M13.1729 43.062L13.4131 43.1021L13.7334 43.3022L14.2539 43.6226V43.7827L13.9736 44.1831L13.6533 44.5435L13.2529 44.8237L12.8525 45.0239L12.332 45.1841L12.0117 45.2241L11.6914 45.064L11.2109 44.2632L11.1309 44.103H11.0508V44.0229H11.8916L12.292 43.9028L12.6924 43.6626L13.0127 43.3022L13.1729 43.062Z" fill="#00D4EA"/>
<path d="M10.0898 39.4185L10.29 39.4985L10.5303 39.8589L10.7705 40.4995L10.9707 40.98L11.4912 42.2212L11.6113 42.4614L11.5713 42.6616H10.6104V42.3813L10.1699 41.5005L9.84961 40.7397L9.64941 40.1792L9.5293 40.019V39.8989L9.44922 39.8589L9.80957 39.5786L10.0898 39.4185Z" fill="#02ADCC"/>
<path d="M8.56836 41.2202H8.68848L9.00879 41.8208L9.24902 42.4614L9.48926 43.022L9.64941 43.3423L9.84961 44.103L9.92969 44.5835V44.7837H9.76953L9.3291 44.4634L9.00879 44.103L8.68848 43.5425L8.48828 43.022L8.4082 42.6216V41.7808L8.52832 41.2603L8.56836 41.2202Z" fill="#145283"/>
<path d="M9.40918 39.8989H9.5293L9.72949 40.2993L10.0098 41.0601L10.29 41.6606L10.6504 42.3813V42.6216L10.6104 42.6616L9.68945 42.7417V42.6616L9.92969 42.6216L9.88965 42.4214L9.56934 41.7808L9.24902 41.02L9.08887 40.6196L8.96875 40.4595L9.04883 40.2593L9.40918 39.8989Z" fill="#028AAA"/>
<path d="M13.1738 43.062L13.4141 43.1021L13.7344 43.3022L14.2549 43.6226V43.7827L13.9746 44.1831L13.6543 44.5435L13.2939 44.7837L13.1738 44.4634L13.1338 44.1831L12.9336 43.9829L12.7334 43.8228V43.7427L12.6133 43.7026L12.8936 43.4624L13.1738 43.062Z" fill="#00F5FE"/>
<path d="M11.0508 44.0229H12.0117L12.2119 44.3833L12.4922 44.8237L12.6123 45.0239L12.4922 45.144L12.0117 45.2241L11.6914 45.064L11.2109 44.2632L11.1309 44.103H11.0508V44.0229Z" fill="#02AECD"/>
<path d="M10.4902 43.7827L11.0508 44.0229V44.103H11.1309L11.4111 44.5034L11.6514 44.9438L11.6914 45.064L11.9316 45.144L12.0117 45.2241L11.8115 45.2642H11.251L11.0107 45.104L10.7305 44.5835L10.5303 44.063L10.4902 43.7827Z" fill="#028AAA"/>
</svg>
